<svg xmlns="http://www.w3.org/2000/svg" width="682.608" height="151.192" viewBox="0 0 682.608 151.192">
  <g id="グループ_1" data-name="グループ 1" transform="translate(-5034.432 -555.848)">
    <path id="パス_3" data-name="パス 3" d="M-296.064-40.536a63.741,63.741,0,0,1-9.5,16.344,97.326,97.326,0,0,0-16.416-7.416,91.461,91.461,0,0,0,7.344-8.64,5.232,5.232,0,0,0,2.664,1.3,16.78,16.78,0,0,0,4.032-.936,86.637,86.637,0,0,1,11.088-1.8C-296.064-41.76-295.7-41.472-296.064-40.536Zm-16.272-2.88c.72-1.08,1.368-2.088,2.016-3.168,1.08-1.8,2.088-2.376,2.088-3.744,0-1.44-4.1-3.816-7.56-4.32a15.642,15.642,0,0,0-4.464-.072l-.36,1.224c2.448,1.152,4.32,2.376,4.32,3.672,0,4.32-11.952,20.808-23.04,29.232l1.08,1.44A64.332,64.332,0,0,0-323.424-30.24a60.978,60.978,0,0,1,14.9,9.648,98.528,98.528,0,0,1-30.312,24.12l.936,1.512a85.857,85.857,0,0,0,33.048-21.96c5.04,5.616,6.192,8.568,8.568,8.5,1.8,0,2.88-1.224,2.88-3.168-.144-3.024-3.528-6.48-7.7-9.576a112.7,112.7,0,0,0,10.8-16.344c.936-1.728,3.528-2.376,3.528-3.888,0-2.16-5.112-5.616-6.912-5.616-1.368,0-2.016,1.44-3.96,1.872a108.231,108.231,0,0,1-14.4,1.728Zm18.576-10.512a37.776,37.776,0,0,1,6.408,6.552c1.44,1.728,2.3,3.1,3.384,3.1a1.909,1.909,0,0,0,1.944-2.016c-.072-1.512-.792-2.736-2.52-4.32a24.689,24.689,0,0,0-8.424-4.392Zm6.192-4.392a38.094,38.094,0,0,1,6.552,5.9c1.584,1.728,2.3,3.24,3.6,3.24a1.79,1.79,0,0,0,1.8-2.088c0-1.584-.864-2.952-2.736-4.392A26.113,26.113,0,0,0-286.7-59.4Zm46.368,4.032c2.88,1.368,4.248,2.52,4.248,3.672,0,.72-.576,2.016-1.872,3.888-5.184,7.488-18.36,21.24-35.712,31.032l.936,1.656C-261-19.008-250.7-27-246.024-31.032a5.767,5.767,0,0,1,.792,3.168,179.874,179.874,0,0,1-.648,19.656c-.288,2.3-.864,3.816-.864,5.184,0,2.736,1.368,6.192,4.1,6.192,1.872,0,2.736-1.152,2.736-3.96,0-4.1-.432-14.9,0-25.2.072-1.872.648-2.952.648-3.96,0-1.152-1.656-2.448-3.744-3.816,4.536-4.392,8.136-8.208,10.728-11.016,2.016-2.16,3.384-2.088,3.384-3.672,0-2.088-3.528-5.472-6.624-6.48a14.268,14.268,0,0,0-5.184-.648ZM-174.744-20.3a95.762,95.762,0,0,0,14.76-11.808c1.584-1.512,4.032-1.944,4.032-3.528,0-2.016-5.4-6.336-7.776-6.336-1.152,0-1.872,1.368-4.032,2.016-4.032,1.152-12.672,3.528-18.792,5.256.288-4.32.576-8.064.864-10.008.36-2.376,1.8-3.24,1.8-5.04s-4.824-4.68-7.848-4.68a18,18,0,0,0-5.832,1.224l.072,1.3c3.528.648,5.688,1.152,5.832,2.952.216,2.808.072,9.936-.072,15.768-5.04,1.512-14.256,4.248-16.848,4.248-1.944,0-3.24-1.512-4.68-3.528l-1.08.36a8.923,8.923,0,0,0,.432,4.248c1.008,2.16,5.184,5.4,7.056,5.4,2.16,0,2.52-1.152,5.256-2.448,2.664-1.152,6.552-2.592,9.792-3.744-.072,4.824-.288,11.664-.144,16.416.072,9.792,4.464,10.656,16.272,10.656a84.862,84.862,0,0,0,14.616-1.368c1.944-.36,3.384-1.08,3.384-2.664,0-2.16-3.24-3.1-5.544-3.1-1.44,0-5.184,1.728-14.9,1.728-8.136,0-9-.576-9.144-6.624,0-4.248.144-10.728.5-16.776,6.336-2.16,16.7-5.688,20.592-6.264,1.008-.144,1.368.36.864,1.224A72.8,72.8,0,0,1-175.9-21.456Zm58.176-27c3.6.5,5.544,1.3,5.616,3.168.432,6.912,0,25.992-.288,29.952-.216,2.88-1.08,3.384-1.08,4.824,0,1.584,3.312,5.616,5.184,5.616,1.584,0,2.664-2.16,4.32-3.168,9.576-5.76,19.944-14.328,26.136-23.544l-1.44-1.152c-7.128,7.344-17.064,14.76-26.784,18.864-.792.36-1.3.072-1.3-.864,0-5.4.576-23.688.936-27.288.288-2.3,1.8-2.448,1.8-4.1,0-1.944-4.968-4.824-8.208-4.824a12.17,12.17,0,0,0-4.968,1.08Zm-9.288,11.664c0,9.216-7.2,24.336-18.5,33.552l1.152,1.368c13.68-8.064,20.664-19.872,23.112-31.248.36-1.8,1.728-2.52,1.728-4.1,0-2.376-5.472-5.4-8.208-5.544a14.4,14.4,0,0,0-4.608.72v1.44C-129.24-38.88-125.856-37.872-125.856-35.64Zm84.96-5.112a33.856,33.856,0,0,1-2.736,11.664c-2.808,6.264-9.36,17.208-13.9,17.208-2.952,0-5.9-5.256-5.9-11.808,0-6.192,2.664-11.736,7.128-16.272a27.05,27.05,0,0,1,13.32-7.272A11.763,11.763,0,0,1-40.9-40.752ZM-41.976.576C-18.288-.792-10.152-12.888-10.152-25.272c0-14.976-11.52-25.2-26.856-25.2a31.383,31.383,0,0,0-21.24,7.7c-6.48,5.616-9.936,13.464-9.936,20.52,0,9.072,5.112,17.064,10.224,17.064,7.776,0,16.056-13.752,19.08-22.536a36.4,36.4,0,0,0,2.3-11.952c0-2.952-1.728-5.76-3.6-8.064.936-.072,1.8-.144,2.664-.144,11.88,0,21.1,8.28,21.1,21.168,0,12.96-8.064,22.248-25.848,25.7ZM41.256-20.3a95.762,95.762,0,0,0,14.76-11.808c1.584-1.512,4.032-1.944,4.032-3.528,0-2.016-5.4-6.336-7.776-6.336-1.152,0-1.872,1.368-4.032,2.016-4.032,1.152-12.672,3.528-18.792,5.256.288-4.32.576-8.064.864-10.008.36-2.376,1.8-3.24,1.8-5.04s-4.824-4.68-7.848-4.68a18,18,0,0,0-5.832,1.224l.072,1.3c3.528.648,5.688,1.152,5.832,2.952.216,2.808.072,9.936-.072,15.768-5.04,1.512-14.256,4.248-16.848,4.248-1.944,0-3.24-1.512-4.68-3.528l-1.08.36a8.922,8.922,0,0,0,.432,4.248c1.008,2.16,5.184,5.4,7.056,5.4,2.16,0,2.52-1.152,5.256-2.448,2.664-1.152,6.552-2.592,9.792-3.744-.072,4.824-.288,11.664-.144,16.416C24.12-2.448,28.512-1.584,40.32-1.584A84.862,84.862,0,0,0,54.936-2.952c1.944-.36,3.384-1.08,3.384-2.664,0-2.16-3.24-3.1-5.544-3.1-1.44,0-5.184,1.728-14.9,1.728-8.136,0-9-.576-9.144-6.624,0-4.248.144-10.728.5-16.776,6.336-2.16,16.7-5.688,20.592-6.264,1.008-.144,1.368.36.864,1.224A72.8,72.8,0,0,1,40.1-21.456Zm58.176-27c3.6.5,5.544,1.3,5.616,3.168.432,6.912,0,25.992-.288,29.952-.216,2.88-1.08,3.384-1.08,4.824,0,1.584,3.312,5.616,5.184,5.616,1.584,0,2.664-2.16,4.32-3.168,9.576-5.76,19.944-14.328,26.136-23.544l-1.44-1.152c-7.128,7.344-17.064,14.76-26.784,18.864-.792.36-1.3.072-1.3-.864,0-5.4.576-23.688.936-27.288.288-2.3,1.8-2.448,1.8-4.1,0-1.944-4.968-4.824-8.208-4.824a12.17,12.17,0,0,0-4.968,1.08ZM90.144-35.64c0,9.216-7.2,24.336-18.5,33.552L72.792-.72C86.472-8.784,93.456-20.592,95.9-31.968c.36-1.8,1.728-2.52,1.728-4.1,0-2.376-5.472-5.4-8.208-5.544a14.4,14.4,0,0,0-4.608.72v1.44C86.76-38.88,90.144-37.872,90.144-35.64Zm73.368,22.464c-.216-7.128-.72-20.232-.936-25.128A7.44,7.44,0,0,0,165.6-37.3c1.368,0,3.528-.72,5.832-1.008,3.96-.432,14.9-1.3,19.224-1.3.72,0,.936.288.936.864,0,3.816-1.584,15.624-2.952,23.832C181.8-14.616,170.856-13.752,163.512-13.176ZM151.776-44.064c2.3,2.016,3.456,3.528,4.1,6.12C156.96-33.48,157.9-22.32,157.9-17.28c.072,2.952-.216,6.84-.216,8.424,0,3.1,1.728,5.4,3.456,5.4,1.872,0,2.52-1.224,2.52-3.1V-9c8.352-.576,17.712-1.08,23.328-1.08,3.528,0,7.272.5,9.144.5a2.2,2.2,0,0,0,2.448-2.448c0-1.584-2.016-2.736-4.536-2.952,1.512-7.416,3.024-16.128,3.744-19.584.5-2.088,2.88-2.736,2.88-4.464,0-2.16-5.688-6.7-7.7-6.7-1.584,0-2.016,1.8-4.68,2.088-2.88.432-19.08,1.872-26.28,2.3-.072-.072-.144-.216-.288-.288-2.808-2.448-5.616-3.1-9.072-3.6Zm67.9,13.248a11.742,11.742,0,0,0,.576,4.464c1.08,2.736,4.752,6.624,6.984,6.624,2.3,0,3.168-1.224,7.632-1.728,5.4-.648,24.48-1.728,29.232-1.728,4.608,0,7.128.144,9.72.144s3.672-.864,3.672-2.3c0-2.3-3.384-3.816-6.624-3.816-1.8,0-4.176.432-9,.792-3.6.288-27.864,1.872-34.632,1.872-3.24,0-4.464-2.16-6.12-4.752ZM290.16-48.1a14.65,14.65,0,0,0,.864,4.68c.864,2.016,3.888,5.472,6.264,5.472,1.872,0,2.3-1.44,4.608-2.088,3.816-1.08,13.608-3.528,18.072-4.176.792-.144,1.224.072.864,1.08-6.48,14.544-23.688,31.9-40.608,40.68l1.008,1.656C296.064-6.192,306.5-15.336,313.2-22.32c6.552,4.032,10.584,8.568,14.976,13.968,3.384,4.176,4.68,6.408,6.912,6.408a2.966,2.966,0,0,0,2.952-3.168c0-6.624-11.376-14.256-23.112-19.008A121.058,121.058,0,0,0,326.592-40.1c.936-1.368,3.456-2.088,3.456-3.672,0-1.872-5.256-6.12-7.632-6.12-1.224,0-2.16,1.584-3.744,2.016-3.816.936-17.568,3.456-21.816,3.456-2.448,0-3.96-2.448-5.256-4.248Z" transform="translate(5379 702)" fill="#0d7775"/>
    <path id="パス_4" data-name="パス 4" d="M-307.5-15.736h-9.912V-29.96h9.912Zm7.056-15.792h-2.576v-12.6c1.456-.168,1.9-.784,2.072-1.568l-6.552-.672v14.84h-9.912v-13.1c1.512-.168,1.9-.784,2.016-1.568l-6.384-.672v15.344h-9.632V-43.512c1.456-.224,1.9-.784,2.016-1.568l-6.5-.728v14.28h-8.68l.448,1.568h8.232v34.5h.9c1.68,0,3.584-1.176,3.584-1.736V-.28h35.728c.784,0,1.344-.28,1.512-.9-2.128-1.96-5.712-4.816-5.712-4.816L-303.016-1.9h-28.392V-29.96h9.632V-9.072h.784c1.68,0,3.584-.952,3.584-1.456v-3.584h9.912v3.92h.84c1.736,0,3.64-.952,3.64-1.512V-29.96h9.3c.784,0,1.288-.28,1.456-.84-1.96-1.9-5.264-4.592-5.264-4.592Zm24.192-1.68h11.368v7.728h-11.368Zm11.368-9.016v7.336h-11.368v-7.336Zm16.184,0v7.336h-11.76v-7.336Zm-11.76,16.744v-7.728h11.76v7.728Zm11.76,1.568v2.464h.728c1.456,0,3.752-.952,3.808-1.344V-41.44a4.171,4.171,0,0,0,2.3-1.12l-5.04-3.864-2.3,2.576h-26.712l-4.76-2.072v24.976H-280c1.9,0,3.752-1.008,3.752-1.512v-1.456h6.048c-3.864,5.6-10.3,10.248-18.2,13.272l.392.952A53.469,53.469,0,0,0-272.44-16.3v4.816c0,5.768-2.24,11.592-13.888,15.288l.448.784c15.008-3.192,17.752-9.688,17.864-15.96v-4.424c1.344-.168,1.736-.728,1.848-1.456l-4.312-.448a27.652,27.652,0,0,0,6.048-6.216h5.656a25.476,25.476,0,0,0,5.376,6.384l-3.808-.336V4.48h.9c1.568,0,3.528-.9,3.528-1.344V-16.072a3.032,3.032,0,0,0,.84-.224,40.757,40.757,0,0,0,11.816,6.1c.5-2.184,1.736-3.64,3.528-3.976l.056-.616c-7.672-1.4-16.24-4.368-20.776-9.128Zm55.384-6.272a8.035,8.035,0,0,1,2.744,1.96c.784.84.672,1.4-.28,1.96-3.136,1.68-8.512,3.92-12.88,6.272-.616-3.976-2.8-6.328-6.272-6.328a13.169,13.169,0,0,0-6.16,2.016c-.392.224-.56-.056-.336-.392a60.315,60.315,0,0,0,5.04-7.56,61.071,61.071,0,0,0,13.384-4.032c1.176-.616,1.68-1.176,1.68-1.96,0-1.344-1.344-1.792-2.8-1.792-.84,0-1.232.56-3.472,1.512a55.609,55.609,0,0,1-6.608,2.24c.672-1.288,1.344-2.632,1.792-3.528.56-1.176,1.008-1.624,1.008-2.408,0-1.512-3.92-2.408-5.824-2.408a10.132,10.132,0,0,0-3.416.728l-.056.952a13.171,13.171,0,0,1,3.248,1.008c1.064.5,1.176,1.008.9,1.96a23.99,23.99,0,0,1-1.68,4.648,28.912,28.912,0,0,1-5.152.56c-4.032.056-5.32-1.232-7.448-3.36l-1.064.616c2.016,4.424,3.024,6.1,7.56,6.1a35.123,35.123,0,0,0,4.144-.28A50.663,50.663,0,0,1-222.936-21.5c-2.464,2.52-4.48,3.808-4.424,5.488,0,1.624.784,2.744,2.128,2.688,1.568-.056,3.192-2.968,5.152-5.152,2.24-2.52,5.936-5.88,8.96-5.88,2.856,0,3.752,1.736,3.92,6.384-6.272,3.976-11.648,8.568-11.648,13.16,0,4.536,3.472,7.952,14,7.952A55.4,55.4,0,0,0-192.3,1.624c1.9-.56,2.3-1.288,2.3-2.352,0-1.456-1.4-2.128-3.64-2.128-2.52,0-5.768,1.792-14.056,1.792-5.376,0-8.568-1.456-8.568-4.312,0-3.192,3.92-6.608,9.072-9.632-.056,2.856-.28,5.6-.28,7a2.173,2.173,0,0,0,2.3,2.408c1.344,0,2.072-1.008,2.072-2.52,0-1.9-.056-5.656-.28-8.848A109.08,109.08,0,0,1-187.936-22.9c2.352-.672,3.192-.784,3.192-2.016,0-1.68-1.792-3.808-3.36-4.816a10.1,10.1,0,0,0-4.592-1.4Zm36.008-8.232c-.336,8.12-1.736,15.008-15.232,20.552l.672.9c16.352-4.984,18.48-12.32,19.152-21.448h6.664V-25.48c0,.56-.224.9-1.12.9-1.008,0-5.992-.336-5.992-.336v.784c2.352.336,3.584.784,4.312,1.456a4.255,4.255,0,0,1,1.008,2.912c5.32-.448,6.048-2.52,6.048-5.656V-38.416h15.4c.784,0,1.4-.28,1.568-.9-2.184-1.9-5.712-4.536-5.712-4.536l-3.024,3.808h-14.784v-4.872c1.344-.224,1.9-.784,2.016-1.568l-6.608-.616v7.056h-23.3l.5,1.624Zm17.3,3.752c3.752,2.408,8.512,6.832,9.912,10.528,5.04,2.744,7.168-7.784-9.408-11.088Zm-25.648-1.344a36.582,36.582,0,0,1-9.8,11.032l.616.672a37.848,37.848,0,0,0,12.208-8.176,1.882,1.882,0,0,0,2.184-.56Zm22.68,21.952a28.028,28.028,0,0,1-7.392,7.84,28.419,28.419,0,0,1-7.952-6.216c.672-.56,1.288-1.064,1.9-1.624Zm3.3-4.2-3.024,2.632h-12.04c1.064-1.064,2.016-2.128,2.912-3.192,1.624.056,2.3-.336,2.52-.9l-6.5-2.016C-158.928-16.016-165.7-9.016-173.6-4.872l.5.728a48.611,48.611,0,0,0,13.888-7.56,34.435,34.435,0,0,0,6.44,7.168c-6.216,3.864-14.224,6.5-23.52,8.12l.336.952c10.416-1.008,19.1-3.248,25.984-7,5.376,3.528,12.376,5.768,22.344,7.056A4.887,4.887,0,0,1-124.1.224l.056-.728c-9.3-.448-16.688-1.68-22.568-3.976a34.98,34.98,0,0,0,8.9-8.792c1.4-.056,2.016-.168,2.464-.728Zm26.824-11.928a7.042,7.042,0,0,0,0,3.416c.616,1.792,2.856,4.088,5.432,4.088,1.176,0,1.848-.952,3.472-1.792a67.964,67.964,0,0,1,10.3-3.64c1.288-.336,1.792.28.9,1.288-2.3,2.632-7.56,7.9-11.816,11.928-2.8,2.744-7.448,6.944-9.744,9.128-1.624,1.568-2.8,2.632-2.8,4.76a2,2,0,0,0,2.072,2.072A3.448,3.448,0,0,0-112.28-.672c2.184-2.688,5.376-7.28,8.848-10.248a7.439,7.439,0,0,1,5.1-2.3c1.736,0,2.576,1.064,2.968,2.688.392,2.016.784,4.368,1.176,6.272.84,4.48,2.688,5.992,8.848,5.992,4.7,0,11.648-.56,11.648-3.024,0-1.512-1.512-2.464-3.864-2.464-2.072,0-3.024,1.176-9.184,1.176-2.408,0-3.3-.952-4.032-3.584C-91.224-7.9-91.84-10.248-92.4-12.1a4.619,4.619,0,0,0-4.592-3.248,15.353,15.353,0,0,0-3.472.392A134.941,134.941,0,0,1-89.376-24.64c1.96-1.4,3.92-1.96,3.92-3.08,0-1.848-3.808-4.088-5.544-4.088-.9,0-1.344.84-2.744,1.232-3.3.952-12.712,3.192-15.008,3.192-1.232,0-2.352-1.232-3.248-3.024Zm15.848-8.624c-1.68.784-4.368,1.96-6.608,2.912l.448,1.176c2.352-.728,7.168-2.24,9.632-2.464,1.456-.056,2.52,0,3.864,0,1.512,0,2.128-.784,2.128-1.624,0-1.9-2.3-3.36-4.256-3.36a28.629,28.629,0,0,1-3.584.392c-3.472-.112-6.72-1.344-10.36-3.864l-.784.784A16.156,16.156,0,0,0-96.992-38.808Zm38.136-3.136a8.853,8.853,0,0,0-.28,3.416c.28,1.792,2.8,4.48,4.76,4.48,1.064,0,1.848-.784,2.856-1.288a69.113,69.113,0,0,1,9.688-3.416c1.4-.336,1.4.224.616,1.344A235.183,235.183,0,0,1-60.088-17.584c-3.136,2.744-5.544,4.312-5.544,6.216,0,1.736,1.064,3.08,2.184,3.08,1.064,0,1.624-.728,2.464-1.792,5.488-6.384,12.88-12.152,20.44-12.152,5.992,0,10.3,3.248,10.3,8.344,0,8.456-8.848,13.5-23.744,14.784l.168,1.288c20.776.9,28.28-6.44,28.28-14.112,0-7.728-6.216-12.208-14.448-12.208a27.151,27.151,0,0,0-11.48,2.856c-.56.28-.728.112-.28-.336,2.184-2.352,11.424-11.256,14.28-13.5,1.176-.952,3.136-1.232,3.136-2.632,0-1.68-3.528-4.816-5.656-4.816-.728,0-1.064.784-2.3,1.176C-44.24-40.768-52.7-38.7-54.824-38.7c-1.456,0-2.408-1.736-3.136-3.416ZM-7.112,4.592A7.839,7.839,0,0,0,.728-3.3a7.792,7.792,0,0,0-7.84-7.84,7.839,7.839,0,0,0-7.9,7.84A7.887,7.887,0,0,0-7.112,4.592Zm0-13.832A5.975,5.975,0,0,1-1.176-3.3,6.024,6.024,0,0,1-7.112,2.688,6.035,6.035,0,0,1-13.1-3.3,5.987,5.987,0,0,1-7.112-9.24Zm85.4-21.952c.84,0,1.344-.28,1.512-.9-2.184-2.016-5.88-4.76-5.88-4.76l-3.192,4.032H56.5v-12.04c1.4-.224,1.848-.784,1.96-1.568l-6.608-.728v14.336H29.12l.392,1.624H48.944C44.968-20.72,37.3-9.688,27.776-2.576l.672.672A60.294,60.294,0,0,0,51.856-25.48V4.48h.9C54.488,4.48,56.5,3.3,56.5,2.744V-30.632C60.648-18.2,67.816-8.4,76.44-2.856a5.611,5.611,0,0,1,4.312-3.92l.168-.616c-9.016-4.088-18.368-13.16-23.408-23.8Zm22.568-11.592a11.241,11.241,0,0,1,2.576.952,1.96,1.96,0,0,1,1.232,2.184,33.5,33.5,0,0,1-.9,5.712,28.242,28.242,0,0,1-4.928.56c-3.752,0-5.152-1.232-7.56-3.192l-.952.672c1.736,4.592,3.7,6.1,8.064,6.1a37.845,37.845,0,0,0,4.256-.28A62.561,62.561,0,0,1,92.176-11.088,4.509,4.509,0,0,0,91.112-8.12c0,1.288.672,2.632,2.016,2.632,1.176,0,1.96-1.064,2.968-2.52,4.48-6.72,8.288-16.8,10.248-22.68a35.512,35.512,0,0,0,8.9-2.968c.728-.448,1.848-1.176,1.848-2.24a2.108,2.108,0,0,0-2.3-1.96c-.952,0-2.128,1.232-7.168,2.856,1.96-6.5,2.3-7.728,1.288-8.4a8.541,8.541,0,0,0-4.368-1.064,10.843,10.843,0,0,0-3.7.784Zm18.2,35.952c0,3.3-1.512,5.712-6.552,5.712-4.032,0-5.768-1.456-5.768-3.416,0-1.9,2.464-4.032,7.448-4.032a26.688,26.688,0,0,1,4.872.448Zm2.016-25.928c2.52.112,4.76.616,6.216,1.792.84.616,1.064,1.288.168,1.848-1.9.9-4.536,1.848-6.384,3.864-1.792,1.848-2.576,4.032-2.576,7.28,0,2.016.224,4.312.336,6.608-.728-.056-1.512-.112-2.3-.112-7.616,0-12.1,3.416-12.1,7.728,0,3.528,3.248,6.44,9.184,6.44S123.088,0,123.088-4.7c0-.672-.056-1.4-.112-2.184a22.5,22.5,0,0,1,7.112,4.7C131.544-.9,132.328.28,133.5.28,134.512.28,135.3-.5,135.3-1.9c0-1.736-1.568-3.528-4.48-5.32a25.43,25.43,0,0,0-8.288-3.528c-.392-3.3-1.008-6.608-1.12-8.232-.112-2.128,0-3.92,1.12-5.152a8.128,8.128,0,0,1,4.928-2.128c2.576-.112,3.7,1.064,5.264,1.064,1.288,0,1.848-.952,1.848-2.352,0-2.52-1.96-4.816-5.432-6.048a15.369,15.369,0,0,0-8.064-.392Zm41.72-5.432c.728.9.672,1.4-.112,1.736-2.128.84-7.56,2.072-10.3,2.744a2.759,2.759,0,0,0-2.408,2.856,28.58,28.58,0,0,1-.112,4.76c-.392,2.744-1.4,7.784-1.792,10.92-.224,1.624-.616,2.856-.616,3.864a4.591,4.591,0,0,0,1.232,2.856,3.151,3.151,0,0,0,2.3,1.344c1.288,0,1.96-1.848,2.968-3.136,4.032-4.7,10.7-10.192,16.968-10.192,4.816,0,8.4,3.3,8.4,8.008,0,4.2-2.968,8.736-13.16,11.76a57.14,57.14,0,0,1-10.808,1.848l.168,1.288c13.16.952,28.5-3.248,28.5-13.552,0-5.768-4.2-11.424-12.712-11.424-6.384,0-13.1,3.36-18.7,7.84-.448.336-.728.28-.784-.336a40.535,40.535,0,0,1,1.232-7.672,21.365,21.365,0,0,0,.84-4.76c-.056-1.232-.728-2.744-.728-3.416,0-.56.224-.952,1.176-1.12a40.966,40.966,0,0,1,8.232-1.12c2.464,0,3.136.5,4.7.5,1.4,0,2.072-.84,2.072-2.3,0-2.3-1.064-4.144-3.752-5.88-2.016-1.344-5.1-2.576-10.416-2.8l-.28,1.12C158.312-41.384,161.336-40.1,162.792-38.192Zm29.064,3.248a11.685,11.685,0,0,0,0,2.8c.392,2.184,3.528,4.984,5.712,4.984,1.288,0,2.464-1.008,3.584-1.568a103.03,103.03,0,0,1,17.584-5.88c.616-.112.672.224.28.5-6.328,4.816-8.848,12.1-8.848,19.1,0,6.552,2.016,10.08,5.6,12.6C219.52.28,224.672.616,228.2.616c2.576,0,4.424-.56,4.424-2.24,0-1.568-2.016-2.8-3.528-2.8-2.072,0-6.888.336-10.416-1.736-2.184-1.288-4.76-3.7-4.76-9.912,0-10.7,5.32-15.736,7.672-17.192,2.912-1.848,6.664-2.184,9.3-2.184,1.96,0,3.64.168,4.872.168,1.4,0,2.184-.784,2.184-1.736,0-1.008-.672-1.736-1.96-2.3a10.451,10.451,0,0,0-4.2-.728c-1.848,0-6.664.952-12.936,2.464-9.408,2.184-19.432,5.1-22.512,5.1-1.288,0-2.744-1.344-3.584-2.8ZM231.728-30.8a27.956,27.956,0,0,1,5.152,4.648c1.12,1.4,1.736,2.576,2.688,2.576s1.456-.56,1.456-1.568c0-1.232-.56-2.3-2.016-3.472a21.165,21.165,0,0,0-6.664-3.136Zm-5.04,3.7a25.465,25.465,0,0,1,5.1,5.152c1.12,1.4,1.736,2.576,2.576,2.576a1.531,1.531,0,0,0,1.568-1.68,4.391,4.391,0,0,0-1.792-3.248,21.9,21.9,0,0,0-6.72-3.752Zm35.56-14.84a27.9,27.9,0,0,1,3.136.168,2.688,2.688,0,0,1,2.688,2.072l1.512,4.032a37.99,37.99,0,0,1-7.9,1.176c-4.2,0-5.936-.952-8.736-3.024l-.728.56c2.744,5.04,5.712,5.768,9.968,5.768a40.617,40.617,0,0,0,8.736-1.12c.952,2.408,1.96,4.76,2.968,6.776a43.808,43.808,0,0,1-11.536,1.624c-5.824,0-6.608-2.128-3.472-5.208l-.9-.784c-6.328,4.368-3.808,9.52,4.032,9.52a61.537,61.537,0,0,0,13.72-1.568,83.243,83.243,0,0,0,5.1,7.728c.336.56.28.728-.448.5a46.122,46.122,0,0,0-11.256-1.512c-9.688,0-14.392,4.424-14.392,9.128,0,6.384,7.784,9.072,15.288,9.072,6.888,0,10.976-.9,10.976-2.912,0-1.344-1.4-2.128-3.3-2.128-2.464,0-3.584.672-8.008.672-5.1,0-11.76-.784-11.76-5.656,0-3.528,4.144-6.048,10.024-6.048a26.143,26.143,0,0,1,10.976,2.52c2.52,1.344,3.36,2.464,4.872,2.464s2.632-2.464,2.632-4.48c0-1.68-3.248-3.192-7.616-10.192a40.642,40.642,0,0,0,9.408-3.752,2.313,2.313,0,0,0,1.344-2.016c0-1.4-1.624-1.848-3.248-1.68-.784,0-1.624.952-5.88,2.576-1.12.448-2.352.9-3.64,1.288a46.716,46.716,0,0,1-2.856-6.664,45.817,45.817,0,0,0,9.3-3.528,2.417,2.417,0,0,0,1.344-1.848c-.056-1.4-1.792-1.68-3.36-1.68-.784,0-2.8,1.848-8.344,3.584-.56-2.128-.84-4.312-1.12-5.936-.28-1.68-2.464-2.184-4.76-2.184A8.255,8.255,0,0,0,262.08-42.9ZM318.3-1.792c-5.1,0-7.56-1.624-7.56-3.64,0-1.792,1.456-2.912,3.528-2.912,3.136,0,5.712,2.3,6.44,6.44C319.928-1.848,319.144-1.792,318.3-1.792ZM306.04-41.5a8.31,8.31,0,0,0-.112,3.3c.336,1.736,2.52,4.536,4.984,4.536,1.008,0,1.848-.84,2.912-1.344a53.4,53.4,0,0,1,8.624-3.192c.728-.168,1.12.168.5,1.064-2.52,3.808-13.1,13.888-20.944,21.952-1.456,1.456-2.072,2.352-2.128,3.528-.112,1.568.84,2.632,1.736,2.632.952.056,1.456-.336,2.464-1.568,4.7-6.1,10.248-11.256,18.2-11.256,6.776,0,10.416,4.536,10.248,9.464-.056,4.2-2.576,8.064-7.952,9.744a9.321,9.321,0,0,0-9.3-7.952c-3.808,0-6.664,2.352-6.664,5.544,0,4.256,4.48,6.888,10.808,6.888,10.864,0,17.248-5.88,17.36-12.992.112-7.952-6.1-12.712-13.44-12.712a27.742,27.742,0,0,0-9.576,1.9c-.5.224-.784-.224-.336-.672A174.2,174.2,0,0,1,326.256-34.44c1.9-1.624,3.416-1.792,3.416-2.968,0-1.792-3.472-4.48-5.432-4.48-.9,0-1.008.672-2.52,1.12-2.632.84-9.408,2.52-11.536,2.52-1.456,0-2.408-1.68-3.192-3.36Z" transform="translate(5379 603)" fill="#0d7775"/>
  </g>
</svg>
