<svg xmlns="http://www.w3.org/2000/svg" width="299.05" height="254" viewBox="0 0 299.05 254">
  <g id="グループ_2" data-name="グループ 2" transform="translate(-5382.79 -850.36)">
    <path id="パス_5" data-name="パス 5" d="M-107.648-36.032A56.659,56.659,0,0,1-116.1-21.5,86.513,86.513,0,0,0-130.688-28.1a81.3,81.3,0,0,0,6.528-7.68,4.651,4.651,0,0,0,2.368,1.152,14.916,14.916,0,0,0,3.584-.832,77.011,77.011,0,0,1,9.856-1.6C-107.648-37.12-107.328-36.864-107.648-36.032Zm-14.464-2.56c.64-.96,1.216-1.856,1.792-2.816.96-1.6,1.856-2.112,1.856-3.328,0-1.28-3.648-3.392-6.72-3.84a13.9,13.9,0,0,0-3.968-.064l-.32,1.088c2.176,1.024,3.84,2.112,3.84,3.264,0,3.84-10.624,18.5-20.48,25.984l.96,1.28a57.184,57.184,0,0,0,13.184-9.856A54.2,54.2,0,0,1-118.72-18.3a87.581,87.581,0,0,1-26.944,21.44l.832,1.344a76.318,76.318,0,0,0,29.376-19.52c4.48,4.992,5.5,7.616,7.616,7.552a2.5,2.5,0,0,0,2.56-2.816c-.128-2.688-3.136-5.76-6.848-8.512a100.177,100.177,0,0,0,9.6-14.528c.832-1.536,3.136-2.112,3.136-3.456,0-1.92-4.544-4.992-6.144-4.992-1.216,0-1.792,1.28-3.52,1.664a96.206,96.206,0,0,1-12.8,1.536Zm16.512-9.344a33.579,33.579,0,0,1,5.7,5.824c1.28,1.536,2.048,2.752,3.008,2.752a1.7,1.7,0,0,0,1.728-1.792c-.064-1.344-.7-2.432-2.24-3.84a21.946,21.946,0,0,0-7.488-3.9Zm5.5-3.9a33.862,33.862,0,0,1,5.824,5.248c1.408,1.536,2.048,2.88,3.2,2.88a1.591,1.591,0,0,0,1.6-1.856c0-1.408-.768-2.624-2.432-3.9A23.212,23.212,0,0,0-99.328-52.8Zm41.216,3.584c2.56,1.216,3.776,2.24,3.776,3.264,0,.64-.512,1.792-1.664,3.456-4.608,6.656-16.32,18.88-31.744,27.584l.832,1.472a90.571,90.571,0,0,0,24.512-15.1,5.126,5.126,0,0,1,.7,2.816A159.89,159.89,0,0,1-63.04-7.3c-.256,2.048-.768,3.392-.768,4.608,0,2.432,1.216,5.5,3.648,5.5,1.664,0,2.432-1.024,2.432-3.52,0-3.648-.384-13.248,0-22.4.064-1.664.576-2.624.576-3.52,0-1.024-1.472-2.176-3.328-3.392,4.032-3.9,7.232-7.3,9.536-9.792,1.792-1.92,3.008-1.856,3.008-3.264,0-1.856-3.136-4.864-5.888-5.76a12.683,12.683,0,0,0-4.608-.576ZM.192-18.048a85.122,85.122,0,0,0,13.12-10.5C14.72-29.888,16.9-30.272,16.9-31.68c0-1.792-4.8-5.632-6.912-5.632C8.96-37.312,8.32-36.1,6.4-35.52,2.816-34.5-4.864-32.384-10.3-30.848c.256-3.84.512-7.168.768-8.9.32-2.112,1.6-2.88,1.6-4.48s-4.288-4.16-6.976-4.16A16,16,0,0,0-20.1-47.3l.064,1.152c3.136.576,5.056,1.024,5.184,2.624.192,2.5.064,8.832-.064,14.016-4.48,1.344-12.672,3.776-14.976,3.776-1.728,0-2.88-1.344-4.16-3.136l-.96.32a7.931,7.931,0,0,0,.384,3.776c.9,1.92,4.608,4.8,6.272,4.8,1.92,0,2.24-1.024,4.672-2.176,2.368-1.024,5.824-2.3,8.7-3.328-.064,4.288-.256,10.368-.128,14.592.064,8.7,3.968,9.472,14.464,9.472A75.433,75.433,0,0,0,12.352-2.624c1.728-.32,3.008-.96,3.008-2.368,0-1.92-2.88-2.752-4.928-2.752-1.28,0-4.608,1.536-13.248,1.536-7.232,0-8-.512-8.128-5.888,0-3.776.128-9.536.448-14.912,5.632-1.92,14.848-5.056,18.3-5.568.9-.128,1.216.32.768,1.088A64.707,64.707,0,0,1-.832-19.072Zm51.712-24c3.2.448,4.928,1.152,4.992,2.816.384,6.144,0,23.1-.256,26.624-.192,2.56-.96,3.008-.96,4.288,0,1.408,2.944,4.992,4.608,4.992,1.408,0,2.368-1.92,3.84-2.816C72.64-11.264,81.856-18.88,87.36-27.072L86.08-28.1c-6.336,6.528-15.168,13.12-23.808,16.768-.7.32-1.152.064-1.152-.768,0-4.8.512-21.056.832-24.256.256-2.048,1.6-2.176,1.6-3.648,0-1.728-4.416-4.288-7.3-4.288a10.818,10.818,0,0,0-4.416.96ZM43.648-31.68c0,8.192-6.4,21.632-16.448,29.824L28.224-.64C40.384-7.808,46.592-18.3,48.768-28.416c.32-1.6,1.536-2.24,1.536-3.648,0-2.112-4.864-4.8-7.3-4.928a12.8,12.8,0,0,0-4.1.64v1.28C40.64-34.56,43.648-33.664,43.648-31.68Zm75.52-4.544a30.094,30.094,0,0,1-2.432,10.368c-2.5,5.568-8.32,15.3-12.352,15.3-2.624,0-5.248-4.672-5.248-10.5a20.462,20.462,0,0,1,6.336-14.464,24.045,24.045,0,0,1,11.84-6.464A10.456,10.456,0,0,1,119.168-36.224ZM118.208.512C139.264-.7,146.5-11.456,146.5-22.464c0-13.312-10.24-22.4-23.872-22.4a27.9,27.9,0,0,0-18.88,6.848c-5.76,4.992-8.832,11.968-8.832,18.24,0,8.064,4.544,15.168,9.088,15.168,6.912,0,14.272-12.224,16.96-20.032a32.355,32.355,0,0,0,2.048-10.624c0-2.624-1.536-5.12-3.2-7.168.832-.064,1.6-.128,2.368-.128,10.56,0,18.752,7.36,18.752,18.816,0,11.52-7.168,19.776-22.976,22.848Zm-234.176,53.44a85.122,85.122,0,0,0,13.12-10.5c1.408-1.344,3.584-1.728,3.584-3.136,0-1.792-4.8-5.632-6.912-5.632-1.024,0-1.664,1.216-3.584,1.792-3.584,1.024-11.264,3.136-16.7,4.672.256-3.84.512-7.168.768-8.9.32-2.112,1.6-2.88,1.6-4.48s-4.288-4.16-6.976-4.16a16,16,0,0,0-5.184,1.088l.064,1.152c3.136.576,5.056,1.024,5.184,2.624.192,2.5.064,8.832-.064,14.016-4.48,1.344-12.672,3.776-14.976,3.776-1.728,0-2.88-1.344-4.16-3.136l-.96.32a7.931,7.931,0,0,0,.384,3.776c.9,1.92,4.608,4.8,6.272,4.8,1.92,0,2.24-1.024,4.672-2.176,2.368-1.024,5.824-2.3,8.7-3.328-.064,4.288-.256,10.368-.128,14.592.064,8.7,3.968,9.472,14.464,9.472a75.433,75.433,0,0,0,12.992-1.216c1.728-.32,3.008-.96,3.008-2.368,0-1.92-2.88-2.752-4.928-2.752-1.28,0-4.608,1.536-13.248,1.536-7.232,0-8-.512-8.128-5.888,0-3.776.128-9.536.448-14.912,5.632-1.92,14.848-5.056,18.3-5.568.9-.128,1.216.32.768,1.088a64.707,64.707,0,0,1-9.408,12.416Zm51.712-24c3.2.448,4.928,1.152,4.992,2.816.384,6.144,0,23.1-.256,26.624-.192,2.56-.96,3.008-.96,4.288,0,1.408,2.944,4.992,4.608,4.992,1.408,0,2.368-1.92,3.84-2.816C-43.52,60.736-34.3,53.12-28.8,44.928L-30.08,43.9c-6.336,6.528-15.168,13.12-23.808,16.768-.7.32-1.152.064-1.152-.768,0-4.8.512-21.056.832-24.256.256-2.048,1.6-2.176,1.6-3.648,0-1.728-4.416-4.288-7.3-4.288a10.818,10.818,0,0,0-4.416.96ZM-72.512,40.32c0,8.192-6.4,21.632-16.448,29.824l1.024,1.216c12.16-7.168,18.368-17.664,20.544-27.776.32-1.6,1.536-2.24,1.536-3.648,0-2.112-4.864-4.8-7.3-4.928a12.8,12.8,0,0,0-4.1.64v1.28C-75.52,37.44-72.512,38.336-72.512,40.32ZM-7.3,60.288c-.192-6.336-.64-17.984-.832-22.336a6.613,6.613,0,0,0,2.688.9c1.216,0,3.136-.64,5.184-.9,3.52-.384,13.248-1.152,17.088-1.152.64,0,.832.256.832.768,0,3.392-1.408,13.888-2.624,21.184C8.96,59.008-.768,59.776-7.3,60.288ZM-17.728,32.832c2.048,1.792,3.072,3.136,3.648,5.44.96,3.968,1.792,13.888,1.792,18.368.064,2.624-.192,6.08-.192,7.488,0,2.752,1.536,4.8,3.072,4.8,1.664,0,2.24-1.088,2.24-2.752V64c7.424-.512,15.744-.96,20.736-.96,3.136,0,6.464.448,8.128.448a1.957,1.957,0,0,0,2.176-2.176c0-1.408-1.792-2.432-4.032-2.624,1.344-6.592,2.688-14.336,3.328-17.408.448-1.856,2.56-2.432,2.56-3.968,0-1.92-5.056-5.952-6.848-5.952-1.408,0-1.792,1.6-4.16,1.856C12.16,33.6-2.24,34.88-8.64,35.264c-.064-.064-.128-.192-.256-.256-2.5-2.176-4.992-2.752-8.064-3.2ZM42.624,44.608a10.438,10.438,0,0,0,.512,3.968c.96,2.432,4.224,5.888,6.208,5.888,2.048,0,2.816-1.088,6.784-1.536,4.8-.576,21.76-1.536,25.984-1.536,4.1,0,6.336.128,8.64.128s3.264-.768,3.264-2.048c0-2.048-3.008-3.392-5.888-3.392-1.6,0-3.712.384-8,.7-3.2.256-24.768,1.664-30.784,1.664-2.88,0-3.968-1.92-5.44-4.224Zm62.656-15.36a13.023,13.023,0,0,0,.768,4.16c.768,1.792,3.456,4.864,5.568,4.864,1.664,0,2.048-1.28,4.1-1.856,3.392-.96,12.1-3.136,16.064-3.712.7-.128,1.088.064.768.96-5.76,12.928-21.056,28.352-36.1,36.16l.9,1.472c13.184-4.8,22.464-12.928,28.416-19.136,5.824,3.584,9.408,7.616,13.312,12.416,3.008,3.712,4.16,5.7,6.144,5.7a2.636,2.636,0,0,0,2.624-2.816c0-5.888-10.112-12.672-20.544-16.9a107.61,107.61,0,0,0,10.368-14.208c.832-1.216,3.072-1.856,3.072-3.264,0-1.664-4.672-5.44-6.784-5.44-1.088,0-1.92,1.408-3.328,1.792-3.392.832-15.616,3.072-19.392,3.072-2.176,0-3.52-2.176-4.672-3.776Z" transform="translate(5534 1033)" fill="#0d7775"/>
    <path id="パス_6" data-name="パス 6" d="M27.96-11.24H20.88V-21.4h7.08ZM33-22.52H31.16v-9c1.04-.12,1.36-.56,1.48-1.12l-4.68-.48v10.6H20.88v-9.36c1.08-.12,1.36-.56,1.44-1.12l-4.56-.48v10.96H10.88v-8.56c1.04-.16,1.36-.56,1.44-1.12l-4.64-.52v10.2H1.48L1.8-21.4H7.68V3.24h.64c1.2,0,2.56-.84,2.56-1.24V-.2H36.4c.56,0,.96-.2,1.08-.64-1.52-1.4-4.08-3.44-4.08-3.44L31.16-1.36H10.88V-21.4h6.88V-6.48h.56c1.2,0,2.56-.68,2.56-1.04v-2.56h7.08v2.8h.6c1.24,0,2.6-.68,2.6-1.08V-21.4H37.8c.56,0,.92-.2,1.04-.6-1.4-1.36-3.76-3.28-3.76-3.28Zm17.28-1.2H58.4v5.52H50.28Zm8.12-6.44v5.24H50.28v-5.24Zm11.56,0v5.24h-8.4v-5.24ZM61.56-18.2v-5.52h8.4v5.52Zm8.4,1.12v1.76h.52c1.04,0,2.68-.68,2.72-.96V-29.6a2.979,2.979,0,0,0,1.64-.8l-3.6-2.76L69.6-31.32H50.52l-3.4-1.48v17.84h.48c1.36,0,2.68-.72,2.68-1.08v-1.04H54.6c-2.76,4-7.36,7.32-13,9.48l.28.68A38.192,38.192,0,0,0,53-11.64V-8.2C53-4.08,51.4.08,43.08,2.72l.32.56C54.12,1,56.08-3.64,56.16-8.12v-3.16c.96-.12,1.24-.52,1.32-1.04l-3.08-.32a19.751,19.751,0,0,0,4.32-4.44h4.04a18.2,18.2,0,0,0,3.84,4.56l-2.72-.24V3.2h.64c1.12,0,2.52-.64,2.52-.96V-11.48a2.166,2.166,0,0,0,.6-.16,29.112,29.112,0,0,0,8.44,4.36,3.351,3.351,0,0,1,2.52-2.84l.04-.44c-5.48-1-11.6-3.12-14.84-6.52Zm39.56-4.48a5.739,5.739,0,0,1,1.96,1.4c.56.6.48,1-.2,1.4-2.24,1.2-6.08,2.8-9.2,4.48-.44-2.84-2-4.52-4.48-4.52a9.406,9.406,0,0,0-4.4,1.44c-.28.16-.4-.04-.24-.28a43.081,43.081,0,0,0,3.6-5.4,43.622,43.622,0,0,0,9.56-2.88c.84-.44,1.2-.84,1.2-1.4,0-.96-.96-1.28-2-1.28-.6,0-.88.4-2.48,1.08a39.722,39.722,0,0,1-4.72,1.6c.48-.92.96-1.88,1.28-2.52.4-.84.72-1.16.72-1.72,0-1.08-2.8-1.72-4.16-1.72a7.237,7.237,0,0,0-2.44.52l-.04.68a9.408,9.408,0,0,1,2.32.72c.76.36.84.72.64,1.4a17.135,17.135,0,0,1-1.2,3.32,20.651,20.651,0,0,1-3.68.4c-2.88.04-3.8-.88-5.32-2.4l-.76.44c1.44,3.16,2.16,4.36,5.4,4.36a25.088,25.088,0,0,0,2.96-.2,36.187,36.187,0,0,1-5.48,7.28c-1.76,1.8-3.2,2.72-3.16,3.92,0,1.16.56,1.96,1.52,1.92,1.12-.04,2.28-2.12,3.68-3.68,1.6-1.8,4.24-4.2,6.4-4.2,2.04,0,2.68,1.24,2.8,4.56-4.48,2.84-8.32,6.12-8.32,9.4,0,3.24,2.48,5.68,10,5.68a39.569,39.569,0,0,0,8.96-1.08c1.36-.4,1.64-.92,1.64-1.68,0-1.04-1-1.52-2.6-1.52-1.8,0-4.12,1.28-10.04,1.28-3.84,0-6.12-1.04-6.12-3.08,0-2.28,2.8-4.72,6.48-6.88-.04,2.04-.2,4-.2,5A1.552,1.552,0,0,0,101.04-4c.96,0,1.48-.72,1.48-1.8,0-1.36-.04-4.04-.2-6.32a77.914,77.914,0,0,1,11.04-4.24c1.68-.48,2.28-.56,2.28-1.44,0-1.2-1.28-2.72-2.4-3.44a7.215,7.215,0,0,0-3.28-1Zm25.72-5.88c-.24,5.8-1.24,10.72-10.88,14.68l.48.64c11.68-3.56,13.2-8.8,13.68-15.32h4.76v9.24c0,.4-.16.64-.8.64-.72,0-4.28-.24-4.28-.24v.56a5.684,5.684,0,0,1,3.08,1.04,3.039,3.039,0,0,1,.72,2.08c3.8-.32,4.32-1.8,4.32-4.04v-9.28h11c.56,0,1-.2,1.12-.64-1.56-1.36-4.08-3.24-4.08-3.24L152.2-28.6H141.64v-3.48c.96-.16,1.36-.56,1.44-1.12l-4.72-.44v5.04H121.72l.36,1.16Zm12.36,2.68c2.68,1.72,6.08,4.88,7.08,7.52,3.6,1.96,5.12-5.56-6.72-7.92Zm-18.32-.96a26.13,26.13,0,0,1-7,7.88l.44.48a27.034,27.034,0,0,0,8.72-5.84,1.344,1.344,0,0,0,1.56-.4Zm16.2,15.68a20.02,20.02,0,0,1-5.28,5.6,20.3,20.3,0,0,1-5.68-4.44c.48-.4.92-.76,1.36-1.16Zm2.36-3-2.16,1.88h-8.6c.76-.76,1.44-1.52,2.08-2.28,1.16.04,1.64-.24,1.8-.64l-4.64-1.44A32.88,32.88,0,0,1,123.6-3.48l.36.52a34.722,34.722,0,0,0,9.92-5.4,24.6,24.6,0,0,0,4.6,5.12c-4.44,2.76-10.16,4.64-16.8,5.8l.24.68c7.44-.72,13.64-2.32,18.56-5,3.84,2.52,8.84,4.12,15.96,5.04A3.491,3.491,0,0,1,158.96.16L159-.36c-6.64-.32-11.92-1.2-16.12-2.84a24.986,24.986,0,0,0,6.36-6.28c1-.04,1.44-.12,1.76-.52ZM167-21.56a5.03,5.03,0,0,0,0,2.44,4.555,4.555,0,0,0,3.88,2.92c.84,0,1.32-.68,2.48-1.28a48.544,48.544,0,0,1,7.36-2.6c.92-.24,1.28.2.64.92-1.64,1.88-5.4,5.64-8.44,8.52-2,1.96-5.32,4.96-6.96,6.52-1.16,1.12-2,1.88-2,3.4A1.428,1.428,0,0,0,165.44.76,2.463,2.463,0,0,0,167.4-.48c1.56-1.92,3.84-5.2,6.32-7.32a5.314,5.314,0,0,1,3.64-1.64c1.24,0,1.84.76,2.12,1.92.28,1.44.56,3.12.84,4.48.6,3.2,1.92,4.28,6.32,4.28,3.36,0,8.32-.4,8.32-2.16,0-1.08-1.08-1.76-2.76-1.76-1.48,0-2.16.84-6.56.84-1.72,0-2.36-.68-2.88-2.56-.32-1.24-.76-2.92-1.16-4.24a3.3,3.3,0,0,0-3.28-2.32,10.967,10.967,0,0,0-2.48.28,96.384,96.384,0,0,1,7.92-6.92c1.4-1,2.8-1.4,2.8-2.2,0-1.32-2.72-2.92-3.96-2.92-.64,0-.96.6-1.96.88-2.36.68-9.08,2.28-10.72,2.28-.88,0-1.68-.88-2.32-2.16Zm11.32-6.16c-1.2.56-3.12,1.4-4.72,2.08l.32.84a45.676,45.676,0,0,1,6.88-1.76c1.04-.04,1.8,0,2.76,0,1.08,0,1.52-.56,1.52-1.16,0-1.36-1.64-2.4-3.04-2.4a20.449,20.449,0,0,1-2.56.28,13.483,13.483,0,0,1-7.4-2.76l-.56.56A11.54,11.54,0,0,0,178.32-27.72Zm27.24-2.24a6.324,6.324,0,0,0-.2,2.44c.2,1.28,2,3.2,3.4,3.2.76,0,1.32-.56,2.04-.92a49.365,49.365,0,0,1,6.92-2.44c1-.24,1,.16.44.96a167.987,167.987,0,0,1-13.48,14.16c-2.24,1.96-3.96,3.08-3.96,4.44,0,1.24.76,2.2,1.56,2.2.76,0,1.16-.52,1.76-1.28,3.92-4.56,9.2-8.68,14.6-8.68,4.28,0,7.36,2.32,7.36,5.96,0,6.04-6.32,9.64-16.96,10.56l.12.92c14.84.64,20.2-4.6,20.2-10.08,0-5.52-4.44-8.72-10.32-8.72a19.394,19.394,0,0,0-8.2,2.04c-.4.2-.52.08-.2-.24,1.56-1.68,8.16-8.04,10.2-9.64.84-.68,2.24-.88,2.24-1.88,0-1.2-2.52-3.44-4.04-3.44-.52,0-.76.56-1.64.84a61.549,61.549,0,0,1-8.96,1.92c-1.04,0-1.72-1.24-2.24-2.44ZM242.52,3.28a5.6,5.6,0,0,0,5.6-5.64,5.566,5.566,0,0,0-5.6-5.6,5.6,5.6,0,0,0-5.64,5.6A5.633,5.633,0,0,0,242.52,3.28Zm0-9.88a4.268,4.268,0,0,1,4.24,4.24,4.3,4.3,0,0,1-4.24,4.28,4.311,4.311,0,0,1-4.28-4.28A4.277,4.277,0,0,1,242.52-6.6ZM37.12,33.72c.6,0,.96-.2,1.08-.64-1.56-1.44-4.2-3.4-4.2-3.4l-2.28,2.88H21.56v-8.6c1-.16,1.32-.56,1.4-1.12l-4.72-.52V32.56H2l.28,1.16H16.16A47.588,47.588,0,0,1,1.04,54.16l.48.48A43.067,43.067,0,0,0,18.24,37.8V59.2h.64c1.24,0,2.68-.84,2.68-1.24V34.12C24.52,43,29.64,50,35.8,53.96a4.008,4.008,0,0,1,3.08-2.8l.12-.44c-6.44-2.92-13.12-9.4-16.72-17Zm16.12-8.28a8.029,8.029,0,0,1,1.84.68,1.4,1.4,0,0,1,.88,1.56,23.929,23.929,0,0,1-.64,4.08,20.173,20.173,0,0,1-3.52.4c-2.68,0-3.68-.88-5.4-2.28l-.68.48c1.24,3.28,2.64,4.36,5.76,4.36a27.032,27.032,0,0,0,3.04-.2,44.687,44.687,0,0,1-7.48,13.56,3.221,3.221,0,0,0-.76,2.12c0,.92.48,1.88,1.44,1.88.84,0,1.4-.76,2.12-1.8,3.2-4.8,5.92-12,7.32-16.2a25.366,25.366,0,0,0,6.36-2.12c.52-.32,1.32-.84,1.32-1.6a1.506,1.506,0,0,0-1.64-1.4c-.68,0-1.52.88-5.12,2.04,1.4-4.64,1.64-5.52.92-6a6.1,6.1,0,0,0-3.12-.76,7.745,7.745,0,0,0-2.64.56Zm13,25.68c0,2.36-1.08,4.08-4.68,4.08-2.88,0-4.12-1.04-4.12-2.44,0-1.36,1.76-2.88,5.32-2.88a19.062,19.062,0,0,1,3.48.32ZM67.68,32.6a7.69,7.69,0,0,1,4.44,1.28c.6.44.76.92.12,1.32a13.526,13.526,0,0,0-4.56,2.76,6.844,6.844,0,0,0-1.84,5.2c0,1.44.16,3.08.24,4.72-.52-.04-1.08-.08-1.64-.08-5.44,0-8.64,2.44-8.64,5.52,0,2.52,2.32,4.6,6.56,4.6s6.76-1.92,6.76-5.28c0-.48-.04-1-.08-1.56a16.069,16.069,0,0,1,5.08,3.36c1.04.92,1.6,1.76,2.44,1.76.72,0,1.28-.56,1.28-1.56,0-1.24-1.12-2.52-3.2-3.8a18.164,18.164,0,0,0-5.92-2.52c-.28-2.36-.72-4.72-.8-5.88-.08-1.52,0-2.8.8-3.68a5.806,5.806,0,0,1,3.52-1.52c1.84-.08,2.64.76,3.76.76.92,0,1.32-.68,1.32-1.68,0-1.8-1.4-3.44-3.88-4.32a10.978,10.978,0,0,0-5.76-.28Zm29.8-3.88c.52.64.48,1-.08,1.24-1.52.6-5.4,1.48-7.36,1.96a1.971,1.971,0,0,0-1.72,2.04,20.415,20.415,0,0,1-.08,3.4c-.28,1.96-1,5.56-1.28,7.8-.16,1.16-.44,2.04-.44,2.76a3.279,3.279,0,0,0,.88,2.04,2.251,2.251,0,0,0,1.64.96c.92,0,1.4-1.32,2.12-2.24,2.88-3.36,7.64-7.28,12.12-7.28a5.667,5.667,0,0,1,6,5.72c0,3-2.12,6.24-9.4,8.4a40.814,40.814,0,0,1-7.72,1.32l.12.92c9.4.68,20.36-2.32,20.36-9.68,0-4.12-3-8.16-9.08-8.16-4.56,0-9.36,2.4-13.36,5.6-.32.24-.52.2-.56-.24a28.953,28.953,0,0,1,.88-5.48,15.26,15.26,0,0,0,.6-3.4c-.04-.88-.52-1.96-.52-2.44,0-.4.16-.68.84-.8a29.261,29.261,0,0,1,5.88-.8c1.76,0,2.24.36,3.36.36,1,0,1.48-.6,1.48-1.64,0-1.64-.76-2.96-2.68-4.2-1.44-.96-3.64-1.84-7.44-2l-.2.8C94.28,26.44,96.44,27.36,97.48,28.72Zm20.76,2.32a8.347,8.347,0,0,0,0,2c.28,1.56,2.52,3.56,4.08,3.56a6.355,6.355,0,0,0,2.56-1.12,73.593,73.593,0,0,1,12.56-4.2c.44-.08.48.16.2.36a16.719,16.719,0,0,0-6.32,13.64c0,4.68,1.44,7.2,4,9,2.68,1.92,6.36,2.16,8.88,2.16,1.84,0,3.16-.4,3.16-1.6,0-1.12-1.44-2-2.52-2-1.48,0-4.92.24-7.44-1.24-1.56-.92-3.4-2.64-3.4-7.08,0-7.64,3.8-11.24,5.48-12.28a12.71,12.71,0,0,1,6.64-1.56c1.4,0,2.6.12,3.48.12,1,0,1.56-.56,1.56-1.24,0-.72-.48-1.24-1.4-1.64a7.465,7.465,0,0,0-3-.52,58.532,58.532,0,0,0-9.24,1.76c-6.72,1.56-13.88,3.64-16.08,3.64a3.626,3.626,0,0,1-2.56-2ZM146.72,34a19.968,19.968,0,0,1,3.68,3.32c.8,1,1.24,1.84,1.92,1.84s1.04-.4,1.04-1.12a3.111,3.111,0,0,0-1.44-2.48,15.118,15.118,0,0,0-4.76-2.24Zm-3.6,2.64a18.189,18.189,0,0,1,3.64,3.68c.8,1,1.24,1.84,1.84,1.84a1.094,1.094,0,0,0,1.12-1.2,3.137,3.137,0,0,0-1.28-2.32,15.64,15.64,0,0,0-4.8-2.68Zm25.4-10.6a19.932,19.932,0,0,1,2.24.12,1.92,1.92,0,0,1,1.92,1.48l1.08,2.88a27.135,27.135,0,0,1-5.64.84,8.725,8.725,0,0,1-6.24-2.16l-.52.4c1.96,3.6,4.08,4.12,7.12,4.12a29.012,29.012,0,0,0,6.24-.8c.68,1.72,1.4,3.4,2.12,4.84a31.292,31.292,0,0,1-8.24,1.16c-4.16,0-4.72-1.52-2.48-3.72l-.64-.56c-4.52,3.12-2.72,6.8,2.88,6.8a43.955,43.955,0,0,0,9.8-1.12,59.463,59.463,0,0,0,3.64,5.52c.24.4.2.52-.32.36a32.944,32.944,0,0,0-8.04-1.08c-6.92,0-10.28,3.16-10.28,6.52,0,4.56,5.56,6.48,10.92,6.48,4.92,0,7.84-.64,7.84-2.08,0-.96-1-1.52-2.36-1.52-1.76,0-2.56.48-5.72.48-3.64,0-8.4-.56-8.4-4.04,0-2.52,2.96-4.32,7.16-4.32a18.674,18.674,0,0,1,7.84,1.8c1.8.96,2.4,1.76,3.48,1.76s1.88-1.76,1.88-3.2c0-1.2-2.32-2.28-5.44-7.28a29.03,29.03,0,0,0,6.72-2.68,1.652,1.652,0,0,0,.96-1.44c0-1-1.16-1.32-2.32-1.2-.56,0-1.16.68-4.2,1.84-.8.32-1.68.64-2.6.92a33.366,33.366,0,0,1-2.04-4.76,32.727,32.727,0,0,0,6.64-2.52,1.727,1.727,0,0,0,.96-1.32c-.04-1-1.28-1.2-2.4-1.2-.56,0-2,1.32-5.96,2.56-.4-1.52-.6-3.08-.8-4.24-.2-1.2-1.76-1.56-3.4-1.56a5.9,5.9,0,0,0-3.52,1.24Zm40.04,28.68c-3.64,0-5.4-1.16-5.4-2.6,0-1.28,1.04-2.08,2.52-2.08,2.24,0,4.08,1.64,4.6,4.6C209.72,54.68,209.16,54.72,208.56,54.72ZM199.8,26.36a5.936,5.936,0,0,0-.08,2.36c.24,1.24,1.8,3.24,3.56,3.24.72,0,1.32-.6,2.08-.96a38.144,38.144,0,0,1,6.16-2.28c.52-.12.8.12.36.76-1.8,2.72-9.36,9.92-14.96,15.68-1.04,1.04-1.48,1.68-1.52,2.52-.08,1.12.6,1.88,1.24,1.88.68.04,1.04-.24,1.76-1.12,3.36-4.36,7.32-8.04,13-8.04,4.84,0,7.44,3.24,7.32,6.76-.04,3-1.84,5.76-5.68,6.96a6.658,6.658,0,0,0-6.64-5.68c-2.72,0-4.76,1.68-4.76,3.96,0,3.04,3.2,4.92,7.72,4.92,7.76,0,12.32-4.2,12.4-9.28.08-5.68-4.36-9.08-9.6-9.08a19.816,19.816,0,0,0-6.84,1.36c-.36.16-.56-.16-.24-.48a124.422,124.422,0,0,1,9.16-8.44c1.36-1.16,2.44-1.28,2.44-2.12,0-1.28-2.48-3.2-3.88-3.2-.64,0-.72.48-1.8.8a46.566,46.566,0,0,1-8.24,1.8c-1.04,0-1.72-1.2-2.28-2.4Z" transform="translate(5417 884)" fill="#0d7775"/>
  </g>
</svg>
