<svg id="icon_trees" xmlns="http://www.w3.org/2000/svg" width="28.521" height="32" viewBox="0 0 28.521 32">
  <path id="icon_trees-2" data-name="icon_trees" d="M13.775,26.9c0,.011,0,.022,0,.034s0,.057,0,.091l0-.125m.935,2.228c0,.037,0,.084,0,.129,0-.117,0-.256,0-.129m-.932-2.011a.449.449,0,0,1,0,.067v0c0-.02,0-.041,0-.065m-7.907,1.76a2.936,2.936,0,0,0,0,.409l0,.022a2.609,2.609,0,0,0,0-.431m17.546,0a2.79,2.79,0,0,0,0,.409v.022a2.656,2.656,0,0,0,0-.431m4.908-3.458a3.07,3.07,0,0,1-1.638-.266c-.12-.068-.141-.054-.113.025a2.964,2.964,0,0,0,.181.421c.1.15.013.119-.109.092a4.168,4.168,0,0,1-1.056-.43c-.023-.014-.04-.014-.033.019a.617.617,0,0,0,.166.241c.045.037.077.066-.034.067a1.586,1.586,0,0,1-.409-.1c-.041-.017-.054,0-.048.036a.448.448,0,0,0,.073.165c.068.1-.1.019-.181-.03a2.97,2.97,0,0,1-.553-.6.117.117,0,0,0-.206.014,1.113,1.113,0,0,0-.014.338c.007.083.026.13-.059.089a.848.848,0,0,1-.365-.415l-.016.021a1.6,1.6,0,0,1-.259.259c-.108.078-.152.117-.162.161s.01.079,0,.1,0,.044-.019.064-.025-.01-.054.029a.363.363,0,0,0-.049.21.441.441,0,0,0,.039.2.7.7,0,0,1-.015.268.579.579,0,0,0-.034.2c-.014.114.013.326.01.437,0,.03,0,.048,0,.013v-.013c0-.061.007-.185.01-.1,0,.132,0,.464,0,.571s.014.343.019.416a.875.875,0,0,0,.03.137c0,.039-.03.063-.03.156s-.014.352,0,.445a1.127,1.127,0,0,1,0,.259,2.632,2.632,0,0,0,0,.435c.005.018.008,0,.011-.04a2.528,2.528,0,0,1,0,.3c-.005.181.014.528.024.713s.005-.368.03-.289a1.007,1.007,0,0,1,.029.244.509.509,0,0,1,0,.152c-.01.063.019.6.039.86a6.755,6.755,0,0,1-.01.718H22.64a1.685,1.685,0,0,0-.012-.184.255.255,0,0,1,.011-.151.366.366,0,0,0,0-.151.58.58,0,0,1,0-.129.643.643,0,0,0-.01-.209.2.2,0,0,1,0-.129.1.1,0,0,0-.025-.105c-.032-.032,0-.054,0-.1s.007-.306,0-.338-.018-.054,0-.064a1.617,1.617,0,0,0-.009-.321c0-.068,0-.11,0-.065,0,.018,0,.042,0,.065a1.565,1.565,0,0,1-.013.277.107.107,0,0,1,0-.1c.021-.032,0-.065.01-.115a1.429,1.429,0,0,0-.01-.162,2.366,2.366,0,0,0-.011-.334.36.36,0,0,1-.014-.122c0-.061-.04-.065-.04-.091s.029,0,.05-.011a1.577,1.577,0,0,0,.022-.3c.011-.1,0-.1.011-.308s.007-.525,0-.564a.578.578,0,0,1,0-.156,2.837,2.837,0,0,0,0-.3.79.79,0,0,0-.007-.211c-.018-.05.01-.051.014-.08s-.007-.291-.014-.331a.632.632,0,0,1-.005-.075.834.834,0,0,0,.005-.125.86.86,0,0,0-.005.125c0,.044-.006.071-.006-.007,0-.185-.005-.405,0-.654s.029-.6.039-.7a.413.413,0,0,0-.014-.125c-.121.054-.191.029-.118-.164a.93.93,0,0,0,.041-.15,1.348,1.348,0,0,0-.08-.352,1.844,1.844,0,0,0-.194-.27c-.084.232-.214.641-.5.776-.085.041-.066-.006-.059-.089a1.081,1.081,0,0,0-.015-.338.117.117,0,0,0-.206-.014,2.941,2.941,0,0,1-.553.6c-.078.049-.249.127-.181.03a.416.416,0,0,0,.073-.165c.007-.037-.007-.053-.047-.036a1.584,1.584,0,0,1-.41.1c-.111,0-.079-.03-.033-.067a.6.6,0,0,0,.165-.241c.008-.033-.01-.033-.032-.019a4.186,4.186,0,0,1-1.056.43c-.122.027-.2.058-.109-.092a3.084,3.084,0,0,0,.181-.421c.028-.079.007-.093-.114-.025a3.066,3.066,0,0,1-1.637.266c-.149-.017-.2-.053-.029-.12a7.536,7.536,0,0,0,1.8-1.328,3.087,3.087,0,0,1-1.025-.288c-.14-.078-.164-.062-.132.029a3.586,3.586,0,0,0,.209.487c.111.174.016.138-.125.107a4.8,4.8,0,0,1-1.222-.5c-.027-.016-.047-.016-.038.023a.709.709,0,0,0,.191.279c.053.042.09.075-.038.077a1.874,1.874,0,0,1-.474-.117c-.047-.02-.063,0-.055.042a.488.488,0,0,0,.084.191c.079.112-.118.022-.209-.035a3.366,3.366,0,0,1-.64-.7.137.137,0,0,0-.239.017,1.242,1.242,0,0,0-.016.392c.007.095.029.149-.069.1a.979.979,0,0,1-.422-.48l-.019.024a1.783,1.783,0,0,1-.3.3c-.124.091-.175.136-.187.187s.012.09,0,.113,0,.051-.022.074-.028-.012-.062.034a.416.416,0,0,0-.057.243.518.518,0,0,0,.045.232.8.8,0,0,1-.017.311.649.649,0,0,0-.039.226c-.017.136.017.4.011.521s.006.441.011.594.006.537.006.661.017-.226.023-.141a.9.9,0,0,0,.034.158c.005.046-.034.074-.034.181s-.017.408,0,.515a1.315,1.315,0,0,1,.005.3,3.128,3.128,0,0,0,0,.5.276.276,0,0,1,.012.176,4.727,4.727,0,0,0,0,.571.818.818,0,0,0,.006-.126c0,.219.018.52.028.7a1.7,1.7,0,0,0,.033.385c.029.091.029-.441.034-.339a.562.562,0,0,1,0,.175c-.011.074.023.7.046,1A8.111,8.111,0,0,1,14.84,32H13.805a2.059,2.059,0,0,0-.013-.213.293.293,0,0,1,.012-.174.418.418,0,0,0,0-.176.65.65,0,0,1,0-.149.754.754,0,0,0-.012-.242.224.224,0,0,1,0-.149.124.124,0,0,0-.029-.122c-.038-.037,0-.062,0-.12s.005-.228,0-.328c.007-.064.012-.144,0-.138s-.017.038,0,.075a.334.334,0,0,1,.005.063c-.006.061-.015.106-.013.038a1.334,1.334,0,0,0-.013-.324.124.124,0,0,1,0-.121c.025-.037,0-.074.012-.132a1.747,1.747,0,0,0-.012-.188,2.627,2.627,0,0,0-.013-.387.439.439,0,0,1-.016-.141c0-.071-.046-.075-.046-.105s.033,0,.058-.013.013.4.025.277,0-.933.013-1.174.008-.608,0-.653a.725.725,0,0,1,0-.147s0,.009-.005,0a.072.072,0,0,1,.009-.078v0s.006-.007.006-.012,0-.135-.006-.236c0-.052,0-.083,0-.049V26.9c0-.052-.006-.1-.008-.113a.989.989,0,0,1,0-.232c.008-.079-.013-.368-.013-.583s-.005-.469,0-.758.034-.7.046-.8a.5.5,0,0,0-.017-.146c-.14.063-.22.034-.136-.189a1.123,1.123,0,0,0,.047-.174,1.56,1.56,0,0,0-.092-.408,2.39,2.39,0,0,0-.224-.312c-.1.269-.249.742-.575.9-.1.047-.076-.007-.069-.1a1.242,1.242,0,0,0-.016-.392.137.137,0,0,0-.239-.017,3.366,3.366,0,0,1-.64.7c-.09.057-.288.147-.209.035a.488.488,0,0,0,.084-.191c.008-.044-.008-.062-.055-.042a1.876,1.876,0,0,1-.473.117c-.129,0-.092-.035-.039-.077a.709.709,0,0,0,.191-.279c.009-.039-.011-.039-.037-.023a4.818,4.818,0,0,1-1.223.5c-.141.031-.236.067-.125-.107a3.464,3.464,0,0,0,.209-.487c.032-.091.008-.107-.132-.029a3.087,3.087,0,0,1-1.025.288,7.536,7.536,0,0,0,1.8,1.328c.172.067.12.1-.029.12a3.066,3.066,0,0,1-1.637-.266c-.121-.068-.142-.054-.114.025a3.084,3.084,0,0,0,.181.421c.1.15.014.119-.109.092a4.186,4.186,0,0,1-1.056-.43c-.022-.014-.04-.014-.032.019a.6.6,0,0,0,.165.241c.046.037.078.066-.033.067a1.594,1.594,0,0,1-.41-.1c-.04-.017-.054,0-.047.036a.416.416,0,0,0,.073.165c.068.1-.1.019-.181-.03a2.941,2.941,0,0,1-.553-.6.117.117,0,0,0-.206.014,1.052,1.052,0,0,0-.014.338c.006.083.025.13-.06.089a.858.858,0,0,1-.365-.415l-.016.021a1.561,1.561,0,0,1-.259.259c-.108.078-.152.117-.161.161s.009.079,0,.1,0,.044-.02.064-.024-.01-.054.029a.357.357,0,0,0-.048.21.441.441,0,0,0,.039.2.741.741,0,0,1-.015.268.554.554,0,0,0-.034.2c-.015.114.012.326.009.437,0,.03,0,.048,0,.013v-.013c0-.061.007-.185.01-.1.005.132.005.464.005.571s.015.343.02.416a.9.9,0,0,0,.029.137c0,.039-.029.063-.029.156a4.4,4.4,0,0,0,0,.445,1.253,1.253,0,0,1,.005.259,2.527,2.527,0,0,0,0,.435c0,.018.008,0,.011-.04a2.625,2.625,0,0,1,0,.3c-.005.181.015.528.025.713s.005-.368.029-.289a1.007,1.007,0,0,1,.029.244.509.509,0,0,1,0,.152c-.009.063.02.6.039.86A6.859,6.859,0,0,1,5.989,32H5.094a1.685,1.685,0,0,0-.012-.184.272.272,0,0,1,.011-.151.35.35,0,0,0,0-.151.536.536,0,0,1,0-.129.639.639,0,0,0-.011-.209.2.2,0,0,1,0-.129.106.106,0,0,0-.025-.105c-.033-.032,0-.054,0-.1s.007-.306,0-.338-.018-.054,0-.064a1.617,1.617,0,0,0-.009-.321c0-.068,0-.11,0-.065,0,.018,0,.042,0,.065a1.51,1.51,0,0,1-.012.277.107.107,0,0,1,0-.1c.022-.032,0-.065.011-.115s-.011-.08-.011-.162a2.224,2.224,0,0,0-.011-.334.387.387,0,0,1-.014-.122c0-.061-.039-.065-.039-.091s.028,0,.05-.011a1.6,1.6,0,0,0,.021-.3c.011-.1,0-.1.011-.308s.007-.525,0-.564a.541.541,0,0,1,0-.156,2.58,2.58,0,0,0,0-.3.75.75,0,0,0-.007-.211c-.018-.05.011-.051.014-.08s-.007-.291-.014-.331a.632.632,0,0,1,0-.075.667.667,0,0,0,0-.125c0,.039,0,.084,0,.125s-.006.071-.006-.007c0-.185-.005-.405,0-.654s.03-.6.039-.7a.383.383,0,0,0-.014-.125c-.121.054-.19.029-.118-.164A.93.93,0,0,0,5,25.34a1.348,1.348,0,0,0-.08-.352,1.917,1.917,0,0,0-.193-.27c-.084.232-.215.641-.5.776-.084.041-.065-.006-.059-.089a1.082,1.082,0,0,0-.014-.338.117.117,0,0,0-.206-.014,2.941,2.941,0,0,1-.553.6c-.079.049-.249.127-.181.03a.448.448,0,0,0,.073-.165c.006-.037-.007-.053-.048-.036a1.586,1.586,0,0,1-.409.1c-.111,0-.079-.03-.034-.067a.617.617,0,0,0,.166-.241c.008-.033-.01-.033-.033-.019a4.151,4.151,0,0,1-1.056.43c-.122.027-.2.058-.108-.092a3.081,3.081,0,0,0,.18-.421c.028-.079.007-.093-.113-.025a3.07,3.07,0,0,1-1.638.266C.047,25.4,0,25.364.166,25.3a9.2,9.2,0,0,0,2.066-1.57c.043-.04.038-.082-.032-.042a.628.628,0,0,1-.348.07c-.058,0-.138.008-.03-.058a1.39,1.39,0,0,0,.253-.242c.036-.044.038-.068-.013-.054a.4.4,0,0,1-.132.014c-.047-.007-.074-.018,0-.069.141-.1,1.047-.877,1.025-1.4-.009-.2-.124-.119-.187-.012a2.183,2.183,0,0,1-.423.514c-.057.045-.075.021-.059-.037a1.532,1.532,0,0,0,.04-.3c0-.032-.04-.037-.068-.007a4.036,4.036,0,0,1-.679.642c-.1.064-.152.047-.118-.032a.911.911,0,0,0,.065-.354c0-.032.012-.062-.048-.019a1.935,1.935,0,0,1-.93.531c-.145.022-.072-.016-.02-.065A1.257,1.257,0,0,0,.7,22.62c.046-.065.029-.055-.011-.047a1.879,1.879,0,0,1-.6.008c-.105-.027-.135-.063.007-.1a3.281,3.281,0,0,0,1.077-.837c.041-.052.015-.074-.033-.063A.773.773,0,0,1,.7,21.553c-.054-.022-.059-.049,0-.062a2.176,2.176,0,0,0,1.253-.866c.1-.11.016-.1-.057-.068a2.135,2.135,0,0,1-.284.089c-.115.027-.137-.036-.048-.083.179-.092,1.49-.968,1.628-1.426.077-.254-.04-.355-.168-.182a.7.7,0,0,1-.326.261c-.1.031-.084-.017-.05-.088a1.1,1.1,0,0,0,.084-.24c.016-.075-.03-.078-.1-.02a3.381,3.381,0,0,1-.761.612c-.072.032-.078.049-.054-.056a.813.813,0,0,0,.027-.184c0-.045-.029-.033-.066-.007a1.049,1.049,0,0,1-.6.225c-.089,0-.123-.035-.033-.064a1.366,1.366,0,0,0,.277-.154c.1-.06.043-.057-.011-.052a.65.65,0,0,1-.261-.019c-.083-.022-.031-.056.021-.077a4.093,4.093,0,0,0,1.347-.943c.044-.047,0-.063-.038-.053a1.174,1.174,0,0,1-.557-.06c-.083-.035-.106-.076,0-.108a3.618,3.618,0,0,0,1.3-.9c.024-.072.009-.124-.042-.1a.905.905,0,0,1-.4.025c-.1-.018-.133-.054.012-.123.549-.262,1.408-1.331,1.341-1.568a.08.08,0,0,0-.144-.037,4.025,4.025,0,0,1-.527.5c-.119.061-.1.02-.086-.049s.07-.115.053-.186-.058-.051-.132.008a1.213,1.213,0,0,1-.421.316c-.055.019-.125.037-.086-.033.025-.046.056-.116.04-.149s-.057-.018-.122.036c-.108.091-.262.265-.38.285-.143.024-.126-.17-.079-.285.015-.037.026-.077-.019-.075a.308.308,0,0,1-.13-.008c-.046-.014-.052-.067.006-.093a3.487,3.487,0,0,0,.631-.384c.038-.036.058-.1.01-.1-.1.01-.177-.03-.115-.083a7.736,7.736,0,0,0,1.829-2.632c.019-.063,0-.084,0-.081-.053.031-.355.248-.309.112A1.143,1.143,0,0,0,4.211,12c0-.051-.019-.063-.036-.029-.035.071-.237.388-.376.436-.044.015-.067-.009-.06-.047a1.7,1.7,0,0,1,.039-.175c.014-.043,0-.067-.018-.05a2.6,2.6,0,0,1-.466.355c-.073.033-.157.06-.173.014a.388.388,0,0,1,.016-.195c.011-.037.02-.072-.009-.059a.3.3,0,0,1-.173.007c-.059-.01-.116-.038-.056-.069A5.6,5.6,0,0,0,3.68,11.5c.051-.061.023-.071-.016-.056-.157.061-.653.082-.433-.009A2.554,2.554,0,0,0,4.247,10.6c.035-.047.066-.065.024-.057a1.571,1.571,0,0,1-.373.029c-.078-.014-.1-.041-.064-.064a4.362,4.362,0,0,0,.951-1.325c.063-.194.079-.271.051-.239-.141.165-.178.271-.433.373-.1.041-.114.011-.084-.074a1.336,1.336,0,0,0,.071-.3c.005-.042-.025-.018-.039,0a1.7,1.7,0,0,1-.6.5c-.191.045-.01-.1.019-.262s-.193.053-.488.045c-.151,0-.105-.111-.042-.159a12.6,12.6,0,0,0,.928-.96c.04-.043.046-.069.024-.052-.278.206-.7.243-.539.163A4.192,4.192,0,0,0,4.728,7.051C4.769,6.948,4.7,7,4.6,6.972c-.016,0-.093.007-.005-.134A10.946,10.946,0,0,0,5.487,4.69a10.953,10.953,0,0,0,.894,2.148c.088.141.01.13-.006.134-.1.025-.17-.024-.129.079A4.214,4.214,0,0,0,7.319,8.224c.156.08-.261.043-.539-.163-.022-.017-.016.009.023.052a12.6,12.6,0,0,0,.928.96c.064.048.109.155-.041.159-.3.008-.518-.2-.489-.045s.211.307.019.262a1.708,1.708,0,0,1-.6-.5c-.013-.021-.043-.045-.038,0a1.341,1.341,0,0,0,.07.3c.031.085.018.115-.083.074-.256-.1-.292-.208-.434-.373-.027-.032-.012.045.051.239a4.345,4.345,0,0,0,.952,1.325c.039.023.014.05-.064.064a1.58,1.58,0,0,1-.374-.029c-.041-.008-.01.01.024.057a2.566,2.566,0,0,0,1.017.837c.22.091-.277.07-.433.009-.039-.015-.067-.005-.017.056a5.55,5.55,0,0,0,.782.691c.059.031,0,.059-.056.069a.3.3,0,0,1-.173-.007c-.029-.013-.02.022-.01.059a.389.389,0,0,1,.017.195c-.016.046-.1.019-.174-.014a2.68,2.68,0,0,1-.466-.355c-.019-.017-.031.007-.018.05a1.476,1.476,0,0,1,.039.175c.007.038-.015.062-.059.047-.139-.048-.341-.365-.377-.436-.017-.034-.036-.022-.035.029a1.075,1.075,0,0,0,.067.316c.046.136-.257-.081-.31-.112-.005,0-.021.018,0,.081A7.746,7.746,0,0,0,8.347,14.92c.063.053-.016.093-.115.083-.047-.005-.027.062.011.1a3.487,3.487,0,0,0,.631.384c.057.026.051.079.005.093a.3.3,0,0,1-.129.008c-.045,0-.035.038-.02.075.047.115.065.309-.078.285-.118-.02-.272-.194-.381-.285-.064-.054-.11-.061-.122-.036s.016.1.041.149c.039.07-.032.052-.086.033a1.213,1.213,0,0,1-.421-.316c-.075-.059-.118-.065-.132-.008s.04.131.052.186.033.11-.086.049a4.089,4.089,0,0,1-.527-.5c-.063-.057-.123-.032-.143.037-.067.237.792,1.306,1.341,1.568.145.069.111.1.012.123a.9.9,0,0,1-.4-.025c-.052-.02-.067.032-.043.1a3.631,3.631,0,0,0,1.3.9c.108.032.085.073,0,.108a1.176,1.176,0,0,1-.558.06c-.038-.01-.081.006-.038.053A4.281,4.281,0,0,0,9.625,19a4.793,4.793,0,0,0,.537-.557c.112-.127.019-.111-.065-.079a2.564,2.564,0,0,1-.329.1c-.133.03-.159-.043-.056-.1.207-.108,1.724-1.121,1.885-1.652.088-.293-.047-.411-.195-.209a.83.83,0,0,1-.377.3c-.116.035-.1-.02-.058-.1a1.314,1.314,0,0,0,.1-.278c.018-.086-.036-.09-.115-.022a3.95,3.95,0,0,1-.881.707c-.083.037-.091.058-.063-.064a.947.947,0,0,0,.032-.213c0-.052-.034-.038-.077-.008a1.207,1.207,0,0,1-.7.26c-.1,0-.142-.041-.038-.074a1.62,1.62,0,0,0,.321-.177c.113-.07.05-.067-.013-.062a.743.743,0,0,1-.3-.021c-.1-.025-.036-.065.025-.089a4.739,4.739,0,0,0,1.559-1.092c.05-.054,0-.072-.044-.061a1.349,1.349,0,0,1-.645-.07c-.1-.04-.123-.087,0-.124a4.207,4.207,0,0,0,1.5-1.042c.028-.083.01-.143-.05-.12a1.052,1.052,0,0,1-.462.028c-.114-.021-.153-.062.015-.142.635-.3,1.629-1.541,1.551-1.814-.023-.081-.092-.11-.165-.044a4.76,4.76,0,0,1-.61.576c-.138.07-.119.023-.1-.057.015-.064.081-.133.061-.215-.017-.066-.067-.06-.153.009a1.413,1.413,0,0,1-.487.366c-.064.022-.145.043-.1-.039.029-.052.065-.134.047-.171s-.066-.021-.141.041c-.126.105-.3.307-.441.33-.165.028-.145-.2-.09-.331.017-.042.029-.088-.023-.086a.371.371,0,0,1-.15-.009c-.053-.016-.06-.078.006-.108a4.024,4.024,0,0,0,.731-.445c.044-.042.067-.118.012-.113-.114.011-.2-.035-.133-.1a8.949,8.949,0,0,0,2.116-3.046c.022-.073,0-.1,0-.094-.061.036-.411.287-.358.129a1.251,1.251,0,0,0,.077-.365c0-.058-.021-.072-.04-.034-.041.083-.275.449-.436.505-.051.017-.077-.01-.069-.054a1.75,1.75,0,0,1,.045-.2c.015-.05,0-.078-.021-.057a3.158,3.158,0,0,1-.539.41c-.085.039-.182.07-.2.016a.452.452,0,0,1,.019-.225c.012-.043.023-.083-.011-.068a.344.344,0,0,1-.2.007c-.068-.011-.134-.043-.065-.079a6.432,6.432,0,0,0,.9-.8c.058-.07.026-.081-.019-.064-.181.07-.756.094-.5-.011a2.964,2.964,0,0,0,1.177-.968c.04-.054.076-.076.028-.066a1.783,1.783,0,0,1-.433.033c-.09-.015-.119-.046-.074-.074a5.009,5.009,0,0,0,1.1-1.533c.073-.224.091-.314.059-.277-.163.191-.206.314-.5.432-.117.047-.132.013-.1-.086a1.558,1.558,0,0,0,.082-.343c.005-.049-.029-.022-.045,0a1.96,1.96,0,0,1-.691.582c-.222.052-.011-.119.022-.3s-.223.061-.565.052c-.174,0-.122-.129-.048-.185a14.374,14.374,0,0,0,1.074-1.111c.046-.049.053-.079.027-.06-.321.239-.805.282-.623.189a4.854,4.854,0,0,0,1.241-1.358c.047-.119-.032-.062-.15-.091-.018-.005-.108.009-.006-.155A12.638,12.638,0,0,0,14.26,0a12.638,12.638,0,0,0,1.034,2.486c.1.164.012.15-.006.155-.118.029-.2-.028-.15.091A4.845,4.845,0,0,0,16.38,4.09c.181.093-.3.05-.624-.189-.026-.019-.019.011.027.06a14.374,14.374,0,0,0,1.074,1.111c.074.056.126.181-.048.185-.342.009-.6-.236-.565-.052s.244.355.022.3a1.96,1.96,0,0,1-.691-.582c-.016-.024-.05-.051-.045,0a1.558,1.558,0,0,0,.082.343c.035.1.02.133-.1.086-.3-.118-.338-.241-.5-.432-.032-.037-.014.053.059.277a5.009,5.009,0,0,0,1.1,1.533c.045.028.016.059-.074.074a1.775,1.775,0,0,1-.432-.033c-.048-.01-.013.012.027.066a2.972,2.972,0,0,0,1.177.968c.254.1-.32.081-.5.011-.046-.017-.078-.006-.019.064a6.375,6.375,0,0,0,.9.8c.069.036,0,.068-.065.079a.344.344,0,0,1-.2-.007c-.034-.015-.023.025-.011.068A.452.452,0,0,1,17,9.047c-.019.054-.116.023-.2-.016a3.158,3.158,0,0,1-.539-.41c-.023-.021-.036.007-.021.057a1.75,1.75,0,0,1,.045.2c.008.044-.018.071-.069.054-.16-.056-.394-.422-.436-.505-.019-.038-.042-.024-.04.034a1.251,1.251,0,0,0,.077.365c.053.158-.3-.093-.358-.129-.007,0-.025.021,0,.094A8.949,8.949,0,0,0,17.57,11.84c.072.061-.019.107-.133.1-.055-.005-.032.071.012.113a4.024,4.024,0,0,0,.731.445c.066.03.059.092.006.108a.371.371,0,0,1-.15.009c-.052,0-.04.044-.023.086.055.133.075.359-.09.331-.137-.023-.315-.225-.441-.33-.074-.062-.127-.07-.141-.041s.018.119.047.171c.045.082-.036.061-.1.039A1.413,1.413,0,0,1,16.8,12.5c-.086-.069-.136-.075-.153-.009-.02.082.047.151.061.215.019.08.039.127-.1.057A4.7,4.7,0,0,1,16,12.188a.092.092,0,0,0-.165.044c-.078.273.916,1.511,1.551,1.814.168.08.129.121.015.142a1.052,1.052,0,0,1-.462-.028c-.06-.023-.077.037-.049.12a4.194,4.194,0,0,0,1.5,1.042c.125.037.1.084,0,.124a1.353,1.353,0,0,1-.646.07c-.045-.011-.094.007-.044.061a4.75,4.75,0,0,0,1.559,1.092c.061.024.12.064.025.089a.743.743,0,0,1-.3.021c-.062,0-.126-.008-.013.062a1.62,1.62,0,0,0,.321.177c.1.033.065.078-.038.074a1.207,1.207,0,0,1-.7-.26c-.043-.03-.074-.044-.077.008a1.008,1.008,0,0,0,.032.213c.028.122.02.1-.063.064a3.95,3.95,0,0,1-.881-.707c-.079-.068-.133-.064-.114.022a1.253,1.253,0,0,0,.1.278c.04.083.058.138-.058.1a.83.83,0,0,1-.377-.3c-.148-.2-.283-.084-.194.209.16.531,1.677,1.544,1.884,1.652.1.053.077.126-.056.1a2.564,2.564,0,0,1-.329-.1c-.084-.032-.177-.048-.065.079A4.793,4.793,0,0,0,18.9,19a4.281,4.281,0,0,0,1.163-.851c.043-.047,0-.063-.038-.053a1.176,1.176,0,0,1-.558-.06c-.082-.035-.106-.076,0-.108a3.631,3.631,0,0,0,1.3-.9c.024-.072.009-.124-.043-.1a.9.9,0,0,1-.4.025c-.1-.018-.132-.054.013-.123.548-.262,1.407-1.331,1.34-1.568-.02-.069-.08-.094-.143-.037a4.025,4.025,0,0,1-.527.5c-.119.061-.1.02-.086-.049s.07-.115.052-.186-.057-.051-.131.008a1.229,1.229,0,0,1-.422.316c-.054.019-.125.037-.086-.033.025-.046.056-.116.041-.149s-.058-.018-.122.036c-.109.091-.263.265-.381.285-.143.024-.125-.17-.078-.285.015-.037.025-.077-.019-.075a.307.307,0,0,1-.13-.008c-.046-.014-.052-.067,0-.093a3.487,3.487,0,0,0,.631-.384c.038-.036.058-.1.011-.1-.1.01-.177-.03-.115-.083A7.746,7.746,0,0,0,22,12.288c.019-.063,0-.084,0-.081-.053.031-.355.248-.31.112A1.075,1.075,0,0,0,21.756,12c0-.051-.018-.063-.035-.029-.036.071-.238.388-.377.436-.044.015-.066-.009-.059-.047a1.476,1.476,0,0,1,.039-.175c.013-.043,0-.067-.018-.05a2.68,2.68,0,0,1-.466.355c-.073.033-.158.06-.174.014a.389.389,0,0,1,.017-.195c.01-.037.019-.072-.01-.059a.3.3,0,0,1-.173.007c-.059-.01-.115-.038-.056-.069a5.55,5.55,0,0,0,.782-.691c.05-.061.022-.071-.017-.056-.156.061-.652.082-.433-.009a2.558,2.558,0,0,0,1.017-.837c.034-.047.065-.065.024-.057a1.575,1.575,0,0,1-.374.029c-.078-.014-.1-.041-.064-.064a4.345,4.345,0,0,0,.952-1.325c.063-.194.078-.271.051-.239-.142.165-.178.271-.434.373-.1.041-.114.011-.083-.074a1.341,1.341,0,0,0,.07-.3c.005-.042-.025-.018-.038,0a1.708,1.708,0,0,1-.6.5c-.192.045-.01-.1.019-.262s-.193.053-.489.045c-.15,0-.1-.111-.041-.159a12.6,12.6,0,0,0,.928-.96c.039-.043.046-.069.023-.052-.278.206-.695.243-.539.163a4.214,4.214,0,0,0,1.073-1.173c.041-.1-.027-.054-.129-.079-.016,0-.094.007-.006-.134a10.953,10.953,0,0,0,.894-2.148,10.892,10.892,0,0,0,.894,2.148c.087.141.01.13-.006.134-.1.025-.17-.024-.129.079a4.208,4.208,0,0,0,1.072,1.173c.157.08-.261.043-.538-.163-.023-.017-.017.009.023.052a12.6,12.6,0,0,0,.928.96c.063.048.109.155-.042.159-.3.008-.517-.2-.488-.045s.211.307.019.262a1.7,1.7,0,0,1-.6-.5c-.014-.021-.044-.045-.039,0a1.336,1.336,0,0,0,.071.3c.03.085.017.115-.084.074-.255-.1-.292-.208-.433-.373-.028-.032-.012.045.051.239a4.362,4.362,0,0,0,.951,1.325c.039.023.014.05-.064.064a1.571,1.571,0,0,1-.373-.029c-.042-.008-.011.01.024.057a2.561,2.561,0,0,0,1.016.837c.22.091-.276.07-.433.009-.039-.015-.067-.005-.016.056a5.6,5.6,0,0,0,.781.691c.06.031,0,.059-.055.069a.3.3,0,0,1-.174-.007c-.029-.013-.019.022-.009.059a.4.4,0,0,1,.017.195c-.017.046-.1.019-.174-.014a2.6,2.6,0,0,1-.466-.355c-.02-.017-.031.007-.018.05a1.476,1.476,0,0,1,.039.175c.007.038-.016.062-.06.047-.139-.048-.341-.365-.376-.436-.017-.034-.037-.022-.035.029a1.075,1.075,0,0,0,.067.316c.045.136-.257-.081-.31-.112-.006,0-.022.018,0,.081a7.717,7.717,0,0,0,1.828,2.632c.062.053-.017.093-.115.083-.048-.005-.028.062.01.1a3.487,3.487,0,0,0,.631.384c.058.026.052.079.006.093a.307.307,0,0,1-.13.008c-.045,0-.034.038-.019.075.047.115.064.309-.078.285-.119-.02-.272-.194-.381-.285-.065-.054-.11-.061-.122-.036s.015.1.04.149c.039.07-.031.052-.086.033a1.223,1.223,0,0,1-.421-.316c-.074-.059-.117-.065-.132-.008s.04.131.053.186.033.11-.086.049a4.025,4.025,0,0,1-.527-.5c-.063-.057-.124-.032-.143.037-.067.237.791,1.306,1.34,1.568.145.069.111.1.013.123a.909.909,0,0,1-.4-.025c-.051-.02-.066.032-.042.1a3.618,3.618,0,0,0,1.3.9c.108.032.085.073,0,.108a1.174,1.174,0,0,1-.557.06c-.039-.01-.082.006-.038.053a4.093,4.093,0,0,0,1.347.943c.052.021.1.055.021.077a.65.65,0,0,1-.261.019c-.054,0-.108-.008-.011.052a1.366,1.366,0,0,0,.277.154c.09.029.057.067-.033.064a1.049,1.049,0,0,1-.6-.225c-.037-.026-.064-.038-.066.007a.813.813,0,0,0,.027.184c.024.1.018.088-.054.056a3.381,3.381,0,0,1-.761-.612c-.069-.058-.115-.055-.1.02a1.1,1.1,0,0,0,.084.24c.034.071.05.119-.05.088a.7.7,0,0,1-.326-.261c-.128-.173-.244-.072-.168.182.139.458,1.449,1.334,1.628,1.426.089.047.067.11-.048.083a2.135,2.135,0,0,1-.284-.089c-.073-.028-.153-.042-.057.068a2.18,2.18,0,0,0,1.253.866c.054.013.049.04-.005.062a.773.773,0,0,1-.441.025c-.048-.011-.074.011-.033.063a3.281,3.281,0,0,0,1.077.837c.143.04.112.076.008.1a1.885,1.885,0,0,1-.6-.008c-.039-.008-.057-.018-.011.047A1.263,1.263,0,0,0,28,22.8c.051.049.124.087-.021.065a1.935,1.935,0,0,1-.93-.531c-.06-.043-.046-.013-.048.019a.911.911,0,0,0,.065.354c.034.079-.023.1-.118.032a4.036,4.036,0,0,1-.679-.642c-.028-.03-.067-.025-.068.007a1.539,1.539,0,0,0,.041.3c.016.058,0,.082-.06.037a2.183,2.183,0,0,1-.423-.514c-.063-.107-.178-.191-.187.012-.022.524.884,1.3,1.025,1.4.072.051.046.062,0,.069a.406.406,0,0,1-.133-.014c-.05-.014-.049.01-.013.054a1.39,1.39,0,0,0,.253.242c.108.066.028.056-.03.058a.628.628,0,0,1-.348-.07c-.07-.04-.075,0-.032.042a9.2,9.2,0,0,0,2.066,1.57c.171.067.119.1-.029.12M6.244,24.741a1,1,0,0,0-.075-.186c-.07-.1-.227.194-.385.443a.24.24,0,0,0,.035.086c.045.054.086.073.128.055a1,1,0,0,0,.2-.2.483.483,0,0,0,.092-.194m2.891-5.5c0,.012.006.035.008.051.029-.013.066-.024.093-.037L9.2,19.233c-.037-.026-.064-.038-.067.007m-.378.875a4.009,4.009,0,0,0,.51-.5c.047-.06.017-.084-.038-.072a.894.894,0,0,1-.51-.029c-.064-.026-.069-.056-.006-.072.081-.021.137-.051.209-.075a6.226,6.226,0,0,1-.575-.5c-.068-.058-.115-.055-.1.02a1.107,1.107,0,0,0,.085.24c.034.071.05.119-.05.088a.7.7,0,0,1-.326-.261c-.128-.173-.245-.072-.168.182a3.02,3.02,0,0,0,.968.978m1.09,2.505c-.17-.119-.292-.242-.348-.282s-.046-.013-.048.019a.889.889,0,0,0,.064.354c.034.079-.022.1-.118.032a4.116,4.116,0,0,1-.679-.642c-.027-.03-.067-.025-.067.007a1.461,1.461,0,0,0,.04.3c.016.058,0,.082-.06.037a2.233,2.233,0,0,1-.423-.514c-.063-.107-.178-.191-.186.012C8,22.434,8.78,23.136,9,23.31c.3-.221.593-.466.847-.69m.464-.9c.042-.052.043-.079-.015-.063a.461.461,0,0,1-.154.016c-.054-.008-.084-.021,0-.08l.018-.014a.785.785,0,0,1-.324,0c-.048-.011-.074.011-.034.063a3,3,0,0,0,.292.3,1.787,1.787,0,0,0,.218-.217m.144.265a.7.7,0,0,1-.233.067c.045.038.086.071.133.108l.137-.126c.051-.046.044-.1-.037-.049m.872-2.013c-.01-.235-.144-.138-.216-.014a2.515,2.515,0,0,1-.49.594c-.066.052-.087.025-.069-.042a1.6,1.6,0,0,0,.046-.349c0-.038-.045-.043-.077-.009a4.746,4.746,0,0,1-.786.743c-.111.074-.176.055-.137-.036a1.052,1.052,0,0,0,.075-.41c0-.038.014-.072-.056-.022-.036.026-.1.087-.185.157.049.042.035.086-.063.063l-.012,0a2.319,2.319,0,0,1-.191.138,1.978,1.978,0,0,0,1.1.706c.326-.277,1.078-1,1.056-1.516m3.809,3.236a1.208,1.208,0,0,0-.087-.216c-.08-.119-.263.225-.446.513a.28.28,0,0,0,.041.1c.052.064.1.085.148.065a1.192,1.192,0,0,0,.237-.237.554.554,0,0,0,.107-.224m4.148-3.953c.027.013.064.024.093.037a.378.378,0,0,0,.008-.051c0-.045-.03-.033-.067-.007l-.034.021m-1.035,2.233a1.978,1.978,0,0,0,1.1-.706,2.318,2.318,0,0,1-.191-.138l-.011,0c-.1.023-.113-.021-.063-.063-.082-.07-.149-.131-.186-.157-.07-.05-.054-.016-.056.022a1.052,1.052,0,0,0,.075.41c.04.091-.026.11-.137.036A4.692,4.692,0,0,1,18,20.151c-.032-.034-.078-.029-.078.009a1.668,1.668,0,0,0,.046.349c.019.067,0,.094-.069.042a2.539,2.539,0,0,1-.49-.594c-.072-.124-.206-.221-.216.014-.022.515.73,1.239,1.056,1.516m.049.564a.7.7,0,0,1-.233-.067c-.081-.046-.088,0-.037.049l.137.126c.047-.037.088-.07.133-.108m.421-.41c.04-.052.014-.074-.033-.063a.79.79,0,0,1-.325,0l.018.014c.084.059.053.072,0,.08a.461.461,0,0,1-.154-.016c-.058-.016-.056.011-.015.063a1.787,1.787,0,0,0,.218.217,3,3,0,0,0,.292-.3m1.779.3c-.008-.2-.123-.119-.186-.012a2.208,2.208,0,0,1-.423.514c-.057.045-.076.021-.06-.037a1.461,1.461,0,0,0,.04-.3c0-.032-.04-.037-.067-.007a4.076,4.076,0,0,1-.679.642c-.1.064-.152.047-.118-.032a.889.889,0,0,0,.064-.354c0-.032.012-.062-.048-.019s-.178.163-.348.282c.254.224.548.469.847.69.22-.174,1-.876.978-1.365m.065-2.99a.7.7,0,0,1-.325.261c-.1.031-.085-.017-.051-.088a1.107,1.107,0,0,0,.085-.24c.016-.075-.03-.078-.1-.02a6.335,6.335,0,0,1-.574.5c.071.024.127.054.208.075.063.016.058.046-.006.072a.891.891,0,0,1-.509.029c-.056-.012-.086.012-.039.072a4.031,4.031,0,0,0,.511.5,3.015,3.015,0,0,0,.967-.978c.077-.254-.04-.355-.168-.182m3.227,5.786a1.06,1.06,0,0,0-.076-.186c-.069-.1-.227.194-.384.443a.24.24,0,0,0,.034.086c.046.054.087.073.128.055a1,1,0,0,0,.2-.2.486.486,0,0,0,.093-.194" transform="translate(0)" fill="#fff"/>
</svg>
