<svg xmlns="http://www.w3.org/2000/svg" width="88.94" height="20" viewBox="0 0 88.94 20">
  <g id="グループ_1" data-name="グループ 1" transform="translate(-973 -152)">
    <path id="パス_4" data-name="パス 4" d="M7.592-.7A3.814,3.814,0,0,1,4.913.26,4.036,4.036,0,0,1,1.739-1.035,5.183,5.183,0,0,1,.584-4.6,5.139,5.139,0,0,1,1.9-8.379,3.915,3.915,0,0,1,4.805-9.534,3.931,3.931,0,0,1,8.258-7.985,3.353,3.353,0,0,1,8.906-6.24H6.951a2.641,2.641,0,0,0-.489-1.016,1.988,1.988,0,0,0-1.581-.609A1.959,1.959,0,0,0,3.2-7,4.135,4.135,0,0,0,2.583-4.57a3.629,3.629,0,0,0,.651,2.358,2.056,2.056,0,0,0,1.654.784A1.891,1.891,0,0,0,6.456-2.1a2.923,2.923,0,0,0,.5-1.085H8.887A4.208,4.208,0,0,1,7.592-.7Zm9.451-5.345a4.037,4.037,0,0,1,.876,2.6,4.011,4.011,0,0,1-.876,2.606A3.219,3.219,0,0,1,14.383.241a3.219,3.219,0,0,1-2.66-1.082,4.011,4.011,0,0,1-.876-2.606,4.037,4.037,0,0,1,.876-2.6,3.2,3.2,0,0,1,2.66-1.1A3.2,3.2,0,0,1,17.042-6.043Zm-2.666.432a1.446,1.446,0,0,0-1.222.562,2.6,2.6,0,0,0-.428,1.6,2.614,2.614,0,0,0,.428,1.606,1.442,1.442,0,0,0,1.222.565A1.434,1.434,0,0,0,15.6-1.841a2.628,2.628,0,0,0,.425-1.606,2.614,2.614,0,0,0-.425-1.6A1.437,1.437,0,0,0,14.376-5.611Zm9.133.032a1.26,1.26,0,0,0-1.263.781,2.682,2.682,0,0,0-.178,1.054V0h-1.8V-6.906h1.746V-5.9a3.071,3.071,0,0,1,.66-.768,2.294,2.294,0,0,1,1.416-.419,2.671,2.671,0,0,1,1.755.562,2.284,2.284,0,0,1,.682,1.863V0H24.671V-4.208a1.92,1.92,0,0,0-.146-.838A1.027,1.027,0,0,0,23.51-5.58ZM32.4-1.289V.063L31.545.1a2.3,2.3,0,0,1-1.752-.444,1.323,1.323,0,0,1-.3-.958V-5.567h-.965V-6.855h.965v-1.93h1.79v1.93H32.4v1.289H31.278v3.656a.823.823,0,0,0,.108.53,1.188,1.188,0,0,0,.66.1q.083,0,.175,0T32.4-1.289Zm8.124-.743a2.3,2.3,0,0,1-.641,1.25A3.141,3.141,0,0,1,37.4.229a3.509,3.509,0,0,1-2.33-.851A3.43,3.43,0,0,1,34.057-3.39a3.847,3.847,0,0,1,.911-2.755A3.114,3.114,0,0,1,37.333-7.1a3.626,3.626,0,0,1,1.555.324,2.724,2.724,0,0,1,1.143,1.022,3.487,3.487,0,0,1,.527,1.428,9.223,9.223,0,0,1,.057,1.371H35.879a1.719,1.719,0,0,0,.654,1.46,1.54,1.54,0,0,0,.9.26,1.3,1.3,0,0,0,.908-.317,1.507,1.507,0,0,0,.336-.476Zm-1.79-2.12A1.575,1.575,0,0,0,38.3-5.24a1.35,1.35,0,0,0-.968-.371,1.229,1.229,0,0,0-.974.394,1.964,1.964,0,0,0-.435,1.066ZM46.13-5.58a1.26,1.26,0,0,0-1.263.781,2.682,2.682,0,0,0-.178,1.054V0h-1.8V-6.906h1.746V-5.9a3.071,3.071,0,0,1,.66-.768,2.294,2.294,0,0,1,1.416-.419,2.671,2.671,0,0,1,1.755.562,2.284,2.284,0,0,1,.682,1.863V0H47.291V-4.208a1.92,1.92,0,0,0-.146-.838A1.027,1.027,0,0,0,46.13-5.58Zm8.892,4.291V.063L54.165.1a2.3,2.3,0,0,1-1.752-.444,1.323,1.323,0,0,1-.3-.958V-5.567h-.965V-6.855h.965v-1.93H53.9v1.93h1.124v1.289H53.9v3.656a.823.823,0,0,0,.108.53,1.188,1.188,0,0,0,.66.1q.083,0,.175,0T55.022-1.289ZM61.99-6.6a2.229,2.229,0,0,1,.933,1.79H61.114a1.07,1.07,0,0,0-.2-.552A1.238,1.238,0,0,0,59.9-5.732a1.459,1.459,0,0,0-.841.184.53.53,0,0,0-.251.432.472.472,0,0,0,.267.451,11.541,11.541,0,0,0,1.885.5,3.463,3.463,0,0,1,1.619.768,1.744,1.744,0,0,1,.533,1.3,2.1,2.1,0,0,1-.765,1.679,3.594,3.594,0,0,1-2.365.651,3.56,3.56,0,0,1-2.409-.689A2.241,2.241,0,0,1,56.8-2.209h1.834a1.208,1.208,0,0,0,.248.686,1.673,1.673,0,0,0,1.244.362,1.9,1.9,0,0,0,.847-.159.508.508,0,0,0,.314-.476.513.513,0,0,0-.254-.463,10.329,10.329,0,0,0-1.885-.546,3.926,3.926,0,0,1-1.657-.73,1.583,1.583,0,0,1-.482-1.244,2.158,2.158,0,0,1,.752-1.647,3.021,3.021,0,0,1,2.117-.689A3.919,3.919,0,0,1,61.99-6.6Z" transform="translate(998.826 166)" fill="#0d7775"/>
    <g id="icon_trees" transform="translate(973 152)">
      <path id="icon_trees-2" data-name="icon_trees" d="M8.609,16.811c0,.007,0,.014,0,.021s0,.036,0,.057l0-.078M9.194,18.2c0,.023,0,.052,0,.081,0-.073,0-.16,0-.081m-.583-1.257a.281.281,0,0,1,0,.042h0c0-.012,0-.026,0-.041m-4.942,1.1a1.835,1.835,0,0,0,0,.256v.014a1.63,1.63,0,0,0,0-.269m10.966,0a1.744,1.744,0,0,0,0,.256v.014a1.66,1.66,0,0,0,0-.269M17.7,15.886a1.919,1.919,0,0,1-1.024-.166c-.075-.042-.088-.034-.071.016a1.853,1.853,0,0,0,.113.263c.059.094.008.074-.068.057a2.605,2.605,0,0,1-.66-.269c-.014-.009-.025-.009-.021.012a.385.385,0,0,0,.1.151c.028.023.048.041-.021.042a.991.991,0,0,1-.256-.063c-.026-.011-.034,0-.03.022a.28.28,0,0,0,.046.1c.042.061-.064.012-.113-.019a1.856,1.856,0,0,1-.346-.377.073.073,0,0,0-.129.009.7.7,0,0,0-.009.211c0,.052.016.081-.037.056a.53.53,0,0,1-.228-.259l-.01.013a1,1,0,0,1-.162.162c-.068.049-.1.073-.1.1s.006.049,0,.061,0,.028-.012.04-.016-.006-.034.018a.227.227,0,0,0-.031.131.275.275,0,0,0,.024.126.437.437,0,0,1-.009.167.362.362,0,0,0-.021.123c-.009.071.008.2.006.273,0,.019,0,.03,0,.008v-.008c0-.038,0-.116.006-.06,0,.083,0,.29,0,.357s.009.214.012.26a.547.547,0,0,0,.019.086c0,.024-.019.039-.019.1s-.009.22,0,.278a.7.7,0,0,1,0,.162,1.645,1.645,0,0,0,0,.272c0,.011.005,0,.007-.025a1.58,1.58,0,0,1,0,.185c0,.113.009.33.015.446s0-.23.019-.181a.629.629,0,0,1,.018.153.318.318,0,0,1,0,.095c-.006.039.012.376.024.538a4.222,4.222,0,0,1-.006.449H14.15a1.053,1.053,0,0,0-.007-.115.159.159,0,0,1,.007-.094.229.229,0,0,0,0-.094.363.363,0,0,1,0-.081.4.4,0,0,0-.006-.131.123.123,0,0,1,0-.081.065.065,0,0,0-.016-.066c-.02-.02,0-.034,0-.065s0-.191,0-.211-.011-.034,0-.04a1.01,1.01,0,0,0-.006-.2c0-.042,0-.069,0-.041,0,.011,0,.026,0,.041A.978.978,0,0,1,14.12,19a.067.067,0,0,1,0-.065c.013-.02,0-.041.006-.072a.893.893,0,0,0-.006-.1,1.479,1.479,0,0,0-.007-.209.225.225,0,0,1-.009-.076c0-.038-.025-.041-.025-.057s.018,0,.031-.007a.985.985,0,0,0,.014-.186c.007-.064,0-.063.007-.193s0-.328,0-.352a.361.361,0,0,1,0-.1,1.773,1.773,0,0,0,0-.184.494.494,0,0,0,0-.132c-.011-.031.006-.032.009-.05s0-.182-.009-.207a.4.4,0,0,1,0-.047.521.521,0,0,0,0-.078.537.537,0,0,0,0,.078c0,.028,0,.044,0,0,0-.116,0-.253,0-.409s.018-.376.024-.434a.258.258,0,0,0-.009-.078c-.076.034-.119.018-.074-.1a.581.581,0,0,0,.026-.094.842.842,0,0,0-.05-.22,1.152,1.152,0,0,0-.121-.169c-.052.145-.134.4-.31.485-.053.026-.041,0-.037-.056a.676.676,0,0,0-.009-.211.073.073,0,0,0-.129-.009,1.838,1.838,0,0,1-.346.377c-.049.031-.156.079-.113.019a.26.26,0,0,0,.046-.1c0-.023,0-.033-.029-.022a.99.99,0,0,1-.256.063c-.069,0-.049-.019-.021-.042a.377.377,0,0,0,.1-.151c.005-.021-.006-.021-.02-.012a2.616,2.616,0,0,1-.66.269c-.076.017-.128.036-.068-.057a1.927,1.927,0,0,0,.113-.263c.017-.049,0-.058-.071-.016a1.916,1.916,0,0,1-1.023.166c-.093-.011-.126-.033-.018-.075a4.71,4.71,0,0,0,1.127-.83,1.929,1.929,0,0,1-.641-.18c-.087-.049-.1-.039-.082.018a2.241,2.241,0,0,0,.131.3c.069.109.01.086-.078.067a3,3,0,0,1-.764-.311c-.017-.01-.029-.01-.024.014a.443.443,0,0,0,.119.174c.033.026.056.047-.024.048a1.171,1.171,0,0,1-.3-.073c-.029-.012-.039,0-.034.026a.3.3,0,0,0,.052.119c.049.07-.074.014-.131-.022a2.1,2.1,0,0,1-.4-.437.085.085,0,0,0-.149.011.776.776,0,0,0-.01.245c0,.059.018.093-.043.064a.612.612,0,0,1-.264-.3l-.012.015a1.114,1.114,0,0,1-.187.188c-.077.057-.109.085-.117.117s.007.056,0,.071,0,.032-.014.046-.017-.007-.039.021a.26.26,0,0,0-.036.152.323.323,0,0,0,.028.145.5.5,0,0,1-.011.194.406.406,0,0,0-.024.141c-.011.085.011.248.007.326s0,.276.007.371,0,.336,0,.413.011-.141.014-.088a.562.562,0,0,0,.021.1c0,.029-.021.046-.021.113s-.011.255,0,.322a.822.822,0,0,1,0,.188,1.955,1.955,0,0,0,0,.314.172.172,0,0,1,.008.11,2.955,2.955,0,0,0,0,.357.512.512,0,0,0,0-.079c0,.137.011.325.017.436a1.062,1.062,0,0,0,.021.241c.018.057.018-.276.021-.212a.351.351,0,0,1,0,.109c-.007.046.014.435.029.622A5.069,5.069,0,0,1,9.275,20H8.628a1.287,1.287,0,0,0-.008-.133.183.183,0,0,1,.007-.109.261.261,0,0,0,0-.11.406.406,0,0,1,0-.093.471.471,0,0,0-.008-.151.14.14,0,0,1,0-.093.077.077,0,0,0-.018-.076c-.024-.023,0-.039,0-.075s0-.143,0-.205c0-.04.008-.09,0-.086s-.011.024,0,.047a.208.208,0,0,1,0,.039c0,.038-.009.066-.008.024a.834.834,0,0,0-.008-.2.078.078,0,0,1,0-.076c.016-.023,0-.046.007-.083a1.092,1.092,0,0,0-.007-.118,1.642,1.642,0,0,0-.008-.242.275.275,0,0,1-.01-.088c0-.044-.029-.047-.029-.066s.021,0,.036-.008.008.247.016.173,0-.583.008-.734.005-.38,0-.408a.453.453,0,0,1,0-.092s0,.006,0,0a.045.045,0,0,1,.006-.049v0s0,0,0-.007,0-.084,0-.147c0-.033,0-.052,0-.031v.009c0-.032,0-.061-.005-.071a.618.618,0,0,1,0-.145c.005-.049-.008-.23-.008-.364s0-.293,0-.474.021-.435.029-.5a.311.311,0,0,0-.011-.091c-.088.039-.137.021-.085-.118a.7.7,0,0,0,.029-.109.975.975,0,0,0-.057-.255,1.494,1.494,0,0,0-.14-.2c-.061.168-.156.464-.359.561-.061.029-.047,0-.043-.064a.776.776,0,0,0-.01-.245.085.085,0,0,0-.149-.011,2.1,2.1,0,0,1-.4.437c-.056.036-.18.092-.131.022a.3.3,0,0,0,.052-.119c.005-.028,0-.039-.034-.026a1.173,1.173,0,0,1-.3.073c-.081,0-.057-.022-.024-.048a.443.443,0,0,0,.119-.174c.006-.024-.007-.024-.023-.014a3.011,3.011,0,0,1-.764.311c-.088.019-.148.042-.078-.067a2.165,2.165,0,0,0,.131-.3c.02-.057.005-.067-.082-.018a1.929,1.929,0,0,1-.641.18,4.71,4.71,0,0,0,1.127.83c.108.042.075.064-.018.075a1.916,1.916,0,0,1-1.023-.166c-.076-.042-.089-.034-.071.016A1.927,1.927,0,0,0,5.756,16c.06.094.009.074-.068.057a2.616,2.616,0,0,1-.66-.269c-.014-.009-.025-.009-.02.012a.377.377,0,0,0,.1.151c.029.023.049.041-.021.042a1,1,0,0,1-.256-.063c-.025-.011-.034,0-.029.022a.26.26,0,0,0,.046.1c.042.061-.064.012-.113-.019a1.838,1.838,0,0,1-.346-.377.073.073,0,0,0-.129.009.658.658,0,0,0-.009.211c0,.052.016.081-.038.056a.536.536,0,0,1-.228-.259l-.01.013a.976.976,0,0,1-.162.162c-.067.049-.095.073-.1.1s.006.049,0,.061,0,.028-.013.04-.015-.006-.034.018a.223.223,0,0,0-.03.131.275.275,0,0,0,.024.126.463.463,0,0,1-.009.167.346.346,0,0,0-.021.123c-.009.071.007.2.006.273,0,.019,0,.03,0,.008v-.008c0-.038,0-.116.006-.06,0,.083,0,.29,0,.357s.009.214.013.26a.563.563,0,0,0,.018.086c0,.024-.018.039-.018.1a2.752,2.752,0,0,0,0,.278.783.783,0,0,1,0,.162,1.579,1.579,0,0,0,0,.272c0,.011,0,0,.007-.025a1.641,1.641,0,0,1,0,.185c0,.113.009.33.016.446s0-.23.018-.181a.629.629,0,0,1,.018.153.318.318,0,0,1,0,.095c-.006.039.013.376.024.538A4.287,4.287,0,0,1,3.743,20H3.184a1.053,1.053,0,0,0-.007-.115.17.17,0,0,1,.007-.094.218.218,0,0,0,0-.094.335.335,0,0,1,0-.081.4.4,0,0,0-.007-.131.123.123,0,0,1,0-.081.066.066,0,0,0-.016-.066c-.021-.02,0-.034,0-.065s0-.191,0-.211-.011-.034,0-.04a1.01,1.01,0,0,0-.006-.2c0-.042,0-.069,0-.041,0,.011,0,.026,0,.041A.944.944,0,0,1,3.154,19a.067.067,0,0,1,0-.065c.014-.02,0-.041.007-.072s-.007-.05-.007-.1a1.39,1.39,0,0,0-.007-.209.242.242,0,0,1-.009-.076c0-.038-.024-.041-.024-.057s.017,0,.031-.007a1,1,0,0,0,.013-.186c.007-.064,0-.063.007-.193s0-.328,0-.352a.338.338,0,0,1,0-.1,1.612,1.612,0,0,0,0-.184.468.468,0,0,0,0-.132c-.011-.031.007-.032.009-.05s0-.182-.009-.207a.4.4,0,0,1,0-.047.417.417,0,0,0,0-.078c0,.024,0,.052,0,.078s0,.044,0,0c0-.116,0-.253,0-.409s.019-.376.024-.434a.239.239,0,0,0-.009-.078c-.076.034-.119.018-.074-.1a.581.581,0,0,0,.026-.094.842.842,0,0,0-.05-.22,1.2,1.2,0,0,0-.121-.169c-.053.145-.134.4-.311.485-.053.026-.041,0-.037-.056a.676.676,0,0,0-.009-.211.073.073,0,0,0-.129-.009,1.838,1.838,0,0,1-.346.377c-.049.031-.156.079-.113.019a.28.28,0,0,0,.046-.1c0-.023,0-.033-.03-.022a.991.991,0,0,1-.256.063c-.069,0-.049-.019-.021-.042a.385.385,0,0,0,.1-.151c0-.021-.006-.021-.021-.012a2.594,2.594,0,0,1-.66.269c-.076.017-.128.036-.067-.057a1.926,1.926,0,0,0,.112-.263c.018-.049,0-.058-.071-.016a1.919,1.919,0,0,1-1.024.166C.029,15.875,0,15.852.1,15.811a5.748,5.748,0,0,0,1.291-.981c.027-.025.024-.051-.02-.026a.392.392,0,0,1-.217.044c-.036,0-.086.005-.019-.036a.869.869,0,0,0,.158-.151c.023-.028.024-.043-.008-.034a.252.252,0,0,1-.083.009c-.029,0-.046-.011,0-.043.088-.062.654-.548.641-.876-.006-.127-.077-.074-.117-.007a1.365,1.365,0,0,1-.264.321c-.036.028-.047.013-.037-.023a.958.958,0,0,0,.025-.189c0-.02-.025-.023-.042,0a2.522,2.522,0,0,1-.424.4c-.059.04-.1.029-.074-.02a.569.569,0,0,0,.041-.221c0-.02.007-.039-.03-.012a1.209,1.209,0,0,1-.581.332c-.091.014-.045-.01-.012-.041a.786.786,0,0,0,.107-.115c.029-.041.018-.034-.007-.029a1.174,1.174,0,0,1-.374.005c-.066-.017-.084-.039,0-.064a2.051,2.051,0,0,0,.673-.523c.026-.032.009-.046-.021-.039a.483.483,0,0,1-.276-.016c-.034-.014-.037-.031,0-.039a1.36,1.36,0,0,0,.783-.541c.06-.069.01-.06-.036-.043A1.334,1.334,0,0,1,1,12.9c-.072.017-.086-.022-.03-.052.112-.057.931-.605,1.018-.891.048-.159-.025-.222-.105-.114a.44.44,0,0,1-.2.163c-.062.019-.052-.011-.031-.055a.687.687,0,0,0,.053-.15c.01-.047-.019-.049-.062-.013a2.113,2.113,0,0,1-.476.382c-.045.02-.049.031-.034-.035a.508.508,0,0,0,.017-.115c0-.028-.018-.021-.041,0a.655.655,0,0,1-.376.141c-.056,0-.077-.022-.021-.04a.854.854,0,0,0,.173-.1c.061-.037.027-.036-.007-.032a.406.406,0,0,1-.163-.012c-.052-.014-.019-.035.013-.048a2.558,2.558,0,0,0,.842-.589c.027-.029,0-.039-.024-.033a.734.734,0,0,1-.348-.038c-.052-.022-.066-.047,0-.067a2.261,2.261,0,0,0,.811-.562c.015-.045.006-.078-.026-.065a.566.566,0,0,1-.249.016c-.062-.011-.083-.034.007-.077.343-.164.88-.832.838-.98a.05.05,0,0,0-.09-.023,2.516,2.516,0,0,1-.329.311c-.074.038-.064.012-.054-.031s.044-.072.033-.116-.036-.032-.082.005a.758.758,0,0,1-.263.2c-.034.012-.078.023-.054-.021s.035-.073.025-.093-.036-.011-.076.023c-.067.057-.164.166-.238.178-.089.015-.079-.106-.049-.178.009-.023.016-.048-.012-.047a.192.192,0,0,1-.081-.005c-.029-.009-.033-.042,0-.058a2.179,2.179,0,0,0,.394-.24c.024-.023.036-.064.006-.061-.061.006-.111-.019-.072-.052A4.835,4.835,0,0,0,2.785,7.68c.012-.039,0-.052,0-.051-.033.019-.222.155-.193.07a.714.714,0,0,0,.042-.2c0-.032-.012-.039-.023-.018-.022.044-.148.243-.235.273-.027.009-.042-.006-.038-.029a1.065,1.065,0,0,1,.024-.109c.009-.027,0-.042-.011-.031a1.628,1.628,0,0,1-.291.222c-.046.021-.1.038-.108.009a.242.242,0,0,1,.01-.122c.007-.023.012-.045-.006-.037a.186.186,0,0,1-.108,0c-.037-.006-.072-.024-.035-.043A3.5,3.5,0,0,0,2.3,7.188c.032-.038.014-.044-.01-.035-.1.038-.408.051-.271-.006a1.6,1.6,0,0,0,.635-.523c.022-.029.041-.041.015-.036a.982.982,0,0,1-.233.018c-.049-.009-.064-.026-.04-.04a2.726,2.726,0,0,0,.594-.828c.039-.121.049-.169.032-.149-.088.1-.111.169-.271.233-.063.026-.071.007-.053-.046a.835.835,0,0,0,.044-.186c0-.026-.016-.011-.024,0a1.062,1.062,0,0,1-.373.314c-.119.028-.006-.064.012-.164s-.121.033-.3.028c-.094,0-.066-.069-.026-.1a7.877,7.877,0,0,0,.58-.6c.025-.027.029-.043.015-.032-.174.129-.435.152-.337.1a2.62,2.62,0,0,0,.67-.733c.026-.064-.017-.034-.081-.049-.01,0-.058,0,0-.084a6.841,6.841,0,0,0,.558-1.342,6.845,6.845,0,0,0,.559,1.342c.055.088.006.081,0,.084-.064.016-.106-.015-.081.049a2.634,2.634,0,0,0,.671.733c.1.05-.163.027-.337-.1-.014-.011-.01.006.014.032a7.877,7.877,0,0,0,.58.6c.04.03.068.1-.026.1-.185,0-.324-.128-.306-.028s.132.192.012.164a1.068,1.068,0,0,1-.373-.314c-.008-.013-.027-.028-.024,0a.838.838,0,0,0,.044.186c.019.053.011.072-.052.046-.16-.064-.183-.13-.271-.233-.017-.02-.008.028.032.149a2.716,2.716,0,0,0,.6.828c.024.014.009.031-.04.04a.987.987,0,0,1-.234-.018c-.026-.005-.006.006.015.036a1.6,1.6,0,0,0,.636.523c.137.057-.173.044-.271.006-.024-.009-.042,0-.011.035a3.469,3.469,0,0,0,.489.432c.037.019,0,.037-.035.043a.186.186,0,0,1-.108,0c-.018-.008-.012.014-.006.037a.243.243,0,0,1,.011.122c-.01.029-.062.012-.109-.009a1.675,1.675,0,0,1-.291-.222c-.012-.011-.019,0-.011.031a.922.922,0,0,1,.024.109c0,.024-.009.039-.037.029-.087-.03-.213-.228-.236-.273-.011-.021-.023-.014-.022.018a.672.672,0,0,0,.042.2c.029.085-.161-.051-.194-.07,0,0-.013.011,0,.051A4.841,4.841,0,0,0,5.217,9.325c.039.033-.01.058-.072.052-.029,0-.017.039.007.061a2.179,2.179,0,0,0,.394.24c.036.016.032.049,0,.058a.19.19,0,0,1-.081.005c-.028,0-.022.024-.013.047.029.072.041.193-.049.178-.074-.013-.17-.121-.238-.178-.04-.034-.069-.038-.076-.023s.01.064.026.093-.02.033-.054.021a.758.758,0,0,1-.263-.2c-.047-.037-.074-.041-.082-.005s.025.082.032.116.021.069-.054.031a2.556,2.556,0,0,1-.329-.311c-.039-.036-.077-.02-.089.023-.042.148.495.816.838.98.091.043.069.066.008.077a.565.565,0,0,1-.249-.016c-.033-.012-.042.02-.027.065a2.27,2.27,0,0,0,.811.563c.068.02.053.046,0,.067a.735.735,0,0,1-.349.038c-.024-.006-.051,0-.024.033a2.676,2.676,0,0,0,.727.532,3,3,0,0,0,.336-.348c.07-.079.012-.069-.041-.049a1.6,1.6,0,0,1-.206.065c-.083.019-.1-.027-.035-.06.129-.068,1.078-.7,1.178-1.033.055-.183-.029-.257-.122-.131a.519.519,0,0,1-.236.189c-.072.022-.061-.013-.036-.064a.821.821,0,0,0,.061-.174c.011-.054-.022-.056-.072-.014a2.469,2.469,0,0,1-.551.442c-.052.023-.057.036-.039-.04a.592.592,0,0,0,.02-.133c0-.032-.021-.024-.048,0a.755.755,0,0,1-.435.162c-.064,0-.089-.026-.024-.046a1.013,1.013,0,0,0,.2-.111c.071-.044.031-.042-.008-.039a.465.465,0,0,1-.189-.013c-.059-.016-.023-.041.016-.056a2.962,2.962,0,0,0,.974-.683c.031-.034,0-.045-.028-.038a.843.843,0,0,1-.4-.044c-.06-.025-.077-.054,0-.078a2.63,2.63,0,0,0,.939-.651c.017-.052.006-.089-.031-.075a.657.657,0,0,1-.289.017c-.071-.013-.1-.039.009-.089.4-.189,1.018-.963.969-1.134-.014-.051-.057-.069-.1-.028a2.975,2.975,0,0,1-.381.36c-.086.044-.074.014-.062-.036s.051-.083.038-.134-.042-.037-.1.006a.883.883,0,0,1-.3.229c-.04.014-.091.027-.063-.024.018-.032.041-.084.029-.107S6.946,7.9,6.9,7.936c-.079.066-.19.192-.276.206-.1.017-.091-.124-.056-.207.011-.026.018-.055-.014-.054a.232.232,0,0,1-.094-.006c-.033-.01-.037-.049,0-.068a2.515,2.515,0,0,0,.457-.278c.027-.026.042-.074.008-.071-.071.007-.128-.022-.083-.06A5.593,5.593,0,0,0,8.166,5.5c.014-.046,0-.061,0-.059-.038.023-.257.179-.224.081a.782.782,0,0,0,.048-.228c0-.036-.013-.045-.025-.021-.026.052-.172.281-.273.316-.032.011-.048-.006-.043-.034a1.094,1.094,0,0,1,.028-.127c.009-.031,0-.049-.013-.036a1.973,1.973,0,0,1-.337.256c-.053.024-.114.044-.126.01a.282.282,0,0,1,.012-.141c.008-.027.014-.052-.007-.043a.215.215,0,0,1-.125,0C7.038,5.469,7,5.449,7.04,5.426a4.02,4.02,0,0,0,.566-.5c.036-.044.016-.051-.012-.04-.113.044-.472.059-.314-.007a1.853,1.853,0,0,0,.736-.605c.025-.034.047-.047.017-.041a1.115,1.115,0,0,1-.271.021c-.056-.009-.074-.029-.046-.046A3.131,3.131,0,0,0,8.4,3.249c.046-.14.057-.2.037-.173-.1.119-.129.2-.313.27-.073.029-.083.008-.061-.054a.974.974,0,0,0,.051-.214c0-.031-.018-.014-.028,0a1.225,1.225,0,0,1-.432.364c-.139.033-.007-.074.014-.189s-.139.038-.353.033c-.109,0-.076-.081-.03-.116a8.984,8.984,0,0,0,.671-.694c.029-.031.033-.049.017-.037-.2.149-.5.176-.389.118a3.034,3.034,0,0,0,.776-.849c.029-.074-.02-.039-.094-.057-.011,0-.068.006,0-.1A7.9,7.9,0,0,0,8.912,0a7.9,7.9,0,0,0,.646,1.554c.064.1.007.094,0,.1-.074.018-.123-.018-.094.057a3.028,3.028,0,0,0,.776.849c.113.058-.189.031-.39-.118-.016-.012-.012.007.017.037a8.984,8.984,0,0,0,.671.694c.046.035.079.113-.03.116-.214.006-.374-.148-.353-.033s.153.222.014.189a1.225,1.225,0,0,1-.432-.364c-.01-.015-.031-.032-.028,0a.973.973,0,0,0,.051.214c.022.062.012.083-.061.054-.184-.074-.211-.151-.313-.27-.02-.023-.009.033.037.173a3.131,3.131,0,0,0,.688.958c.028.017.01.037-.046.046a1.109,1.109,0,0,1-.27-.021c-.03-.006-.008.007.017.041a1.857,1.857,0,0,0,.736.605c.159.066-.2.051-.313.007-.029-.011-.049,0-.012.04a3.984,3.984,0,0,0,.565.5c.043.023,0,.043-.041.049a.215.215,0,0,1-.125,0c-.021-.009-.014.016-.007.043a.282.282,0,0,1,.012.141c-.012.034-.073.014-.126-.01a1.973,1.973,0,0,1-.337-.256c-.014-.013-.023,0-.013.036a1.094,1.094,0,0,1,.028.127c0,.028-.011.044-.043.034-.1-.035-.246-.264-.273-.316-.012-.024-.026-.015-.025.021a.782.782,0,0,0,.048.228c.033.1-.186-.058-.224-.081,0,0-.016.013,0,.059a5.593,5.593,0,0,0,1.322,1.9c.045.038-.012.067-.083.06-.034,0-.02.044.007.071a2.515,2.515,0,0,0,.457.278c.041.019.037.057,0,.068a.232.232,0,0,1-.094.006c-.032,0-.025.027-.014.054.034.083.047.224-.056.207-.086-.014-.2-.141-.276-.206-.046-.039-.079-.044-.088-.026s.011.074.029.107c.028.051-.023.038-.062.024a.883.883,0,0,1-.3-.229c-.054-.043-.085-.047-.1-.006s.029.094.038.134.024.079-.062.036A2.937,2.937,0,0,1,10,7.617a.057.057,0,0,0-.1.028c-.049.171.573.944.969,1.134.1.05.081.076.009.089a.657.657,0,0,1-.289-.017c-.038-.014-.048.023-.031.075a2.621,2.621,0,0,0,.938.651c.078.023.061.052,0,.078a.846.846,0,0,1-.4.044c-.028-.007-.059,0-.028.038a2.969,2.969,0,0,0,.974.683c.038.015.075.04.016.056a.465.465,0,0,1-.189.013c-.039,0-.079-.005-.008.039a1.013,1.013,0,0,0,.2.111c.065.021.041.049-.024.046a.755.755,0,0,1-.435-.162c-.027-.019-.046-.028-.048,0a.63.63,0,0,0,.02.133c.017.076.012.063-.039.04a2.469,2.469,0,0,1-.551-.442c-.049-.043-.083-.04-.071.014a.783.783,0,0,0,.061.174c.025.052.036.086-.036.064a.519.519,0,0,1-.236-.189c-.092-.126-.177-.052-.121.131.1.332,1.048.965,1.178,1.033.064.033.048.079-.035.06a1.6,1.6,0,0,1-.206-.065c-.052-.02-.111-.03-.041.049a3,3,0,0,0,.336.348,2.676,2.676,0,0,0,.727-.532c.027-.029,0-.039-.024-.033a.735.735,0,0,1-.349-.038c-.051-.022-.066-.047,0-.067a2.27,2.27,0,0,0,.811-.562c.015-.045.006-.078-.027-.065a.565.565,0,0,1-.249.016c-.062-.011-.082-.034.008-.077.342-.164.879-.832.838-.98-.013-.043-.05-.059-.089-.023a2.516,2.516,0,0,1-.329.311c-.074.038-.064.012-.054-.031s.044-.072.033-.116-.036-.032-.082.005a.768.768,0,0,1-.264.2c-.034.012-.078.023-.054-.021s.035-.073.026-.093-.036-.011-.076.023c-.068.057-.164.166-.238.178-.089.015-.078-.106-.049-.178.009-.023.016-.048-.012-.047a.192.192,0,0,1-.081-.005c-.029-.009-.032-.042,0-.058a2.179,2.179,0,0,0,.394-.24c.024-.023.036-.064.007-.061-.062.006-.111-.019-.072-.052A4.841,4.841,0,0,0,13.751,7.68c.012-.039,0-.052,0-.051-.033.019-.222.155-.194.07a.672.672,0,0,0,.042-.2c0-.032-.011-.039-.022-.018-.023.044-.149.243-.236.273-.028.009-.041-.006-.037-.029a.922.922,0,0,1,.024-.109c.008-.027,0-.042-.011-.031a1.675,1.675,0,0,1-.291.222c-.046.021-.1.038-.109.009a.243.243,0,0,1,.011-.122c.006-.023.012-.045-.006-.037a.185.185,0,0,1-.108,0c-.037-.006-.072-.024-.035-.043a3.469,3.469,0,0,0,.489-.432c.031-.038.014-.044-.011-.035-.1.038-.408.051-.271-.006a1.6,1.6,0,0,0,.636-.523c.021-.029.041-.041.015-.036a.985.985,0,0,1-.234.018c-.049-.009-.064-.026-.04-.04a2.716,2.716,0,0,0,.6-.828c.039-.121.049-.169.032-.149-.089.1-.111.169-.271.233-.062.026-.071.007-.052-.046a.838.838,0,0,0,.044-.186c0-.026-.016-.011-.024,0a1.068,1.068,0,0,1-.373.314c-.12.028-.006-.064.012-.164s-.121.033-.306.028c-.094,0-.066-.069-.026-.1a7.877,7.877,0,0,0,.58-.6c.024-.027.029-.043.014-.032-.174.129-.434.152-.337.1a2.634,2.634,0,0,0,.671-.733c.026-.064-.017-.034-.081-.049-.01,0-.059,0,0-.084A6.846,6.846,0,0,0,14.4,2.931a6.807,6.807,0,0,0,.559,1.342c.054.088.006.081,0,.084-.064.016-.106-.015-.081.049a2.63,2.63,0,0,0,.67.733c.1.05-.163.027-.336-.1-.014-.011-.011.006.014.032a7.877,7.877,0,0,0,.58.6c.039.03.068.1-.026.1-.184,0-.323-.128-.305-.028s.132.192.012.164a1.062,1.062,0,0,1-.373-.314c-.009-.013-.028-.028-.024,0a.835.835,0,0,0,.044.186c.019.053.011.072-.052.046-.159-.064-.183-.13-.271-.233-.017-.02-.007.028.032.149a2.726,2.726,0,0,0,.594.828c.024.014.009.031-.04.04a.982.982,0,0,1-.233-.018c-.026-.005-.007.006.015.036a1.6,1.6,0,0,0,.635.523c.138.057-.172.044-.271.006-.024-.009-.042,0-.01.035a3.5,3.5,0,0,0,.488.432c.038.019,0,.037-.034.043a.187.187,0,0,1-.109,0c-.018-.008-.012.014-.006.037a.25.25,0,0,1,.011.122c-.011.029-.063.012-.109-.009a1.628,1.628,0,0,1-.291-.222c-.013-.011-.019,0-.011.031a.922.922,0,0,1,.024.109c0,.024-.01.039-.037.029-.087-.03-.213-.228-.235-.273-.011-.021-.023-.014-.022.018a.672.672,0,0,0,.042.2c.028.085-.161-.051-.194-.07,0,0-.014.011,0,.051a4.823,4.823,0,0,0,1.142,1.645c.039.033-.011.058-.072.052-.03,0-.017.039.006.061a2.179,2.179,0,0,0,.394.24c.036.016.033.049,0,.058a.192.192,0,0,1-.081.005c-.028,0-.021.024-.012.047.029.072.04.193-.049.178s-.17-.121-.238-.178c-.041-.034-.069-.038-.076-.023s.009.064.025.093-.019.033-.054.021a.764.764,0,0,1-.263-.2c-.046-.037-.073-.041-.082-.005s.025.082.033.116.021.069-.054.031a2.516,2.516,0,0,1-.329-.311c-.039-.036-.077-.02-.089.023-.042.148.494.816.837.98.091.043.069.066.008.077a.568.568,0,0,1-.25-.016c-.032-.012-.041.02-.026.065a2.261,2.261,0,0,0,.811.563c.067.02.053.046,0,.067a.734.734,0,0,1-.348.038c-.024-.006-.051,0-.024.033a2.558,2.558,0,0,0,.842.589c.033.013.065.034.013.048a.406.406,0,0,1-.163.012c-.034,0-.067-.005-.007.032a.854.854,0,0,0,.173.1c.056.018.036.042-.021.04a.655.655,0,0,1-.376-.141c-.023-.016-.04-.024-.041,0a.508.508,0,0,0,.017.115c.015.066.011.055-.034.035a2.113,2.113,0,0,1-.476-.382c-.043-.036-.072-.034-.062.013a.687.687,0,0,0,.052.15c.021.044.031.074-.031.055a.44.44,0,0,1-.2-.163c-.08-.108-.153-.045-.105.114.087.286.906.834,1.017.891.056.029.042.069-.03.052a1.334,1.334,0,0,1-.177-.056c-.046-.017-.1-.026-.036.043a1.362,1.362,0,0,0,.783.541c.034.008.031.025,0,.039a.483.483,0,0,1-.276.016c-.03-.007-.046.007-.021.039a2.051,2.051,0,0,0,.673.523c.089.025.07.048.005.064a1.178,1.178,0,0,1-.374-.005c-.024,0-.036-.011-.007.029a.789.789,0,0,0,.108.115c.032.031.077.054-.013.041a1.209,1.209,0,0,1-.581-.332c-.038-.027-.029-.008-.03.012a.569.569,0,0,0,.041.221c.021.049-.014.06-.074.02a2.522,2.522,0,0,1-.424-.4c-.018-.019-.042-.016-.043,0a.962.962,0,0,0,.026.189c.01.036,0,.051-.038.023a1.365,1.365,0,0,1-.264-.321c-.039-.067-.111-.119-.117.007-.014.328.553.814.641.876.045.032.029.039,0,.043a.254.254,0,0,1-.083-.009c-.031-.009-.031.006-.008.034a.869.869,0,0,0,.158.151c.067.041.017.035-.019.036a.392.392,0,0,1-.217-.044c-.044-.025-.047,0-.02.026a5.748,5.748,0,0,0,1.291.981c.107.042.074.064-.018.075M3.9,15.463a.625.625,0,0,0-.047-.116c-.044-.064-.142.121-.241.277a.15.15,0,0,0,.022.054c.028.034.054.046.08.034a.624.624,0,0,0,.128-.128.3.3,0,0,0,.057-.121m1.807-3.438c0,.008,0,.022,0,.032.018-.008.041-.015.058-.023l-.021-.013c-.023-.016-.04-.024-.042,0m-.236.547a2.506,2.506,0,0,0,.319-.311c.029-.037.011-.052-.024-.045a.559.559,0,0,1-.319-.018c-.04-.016-.043-.035,0-.045s.086-.032.131-.047a3.891,3.891,0,0,1-.359-.314c-.043-.036-.072-.034-.062.013a.692.692,0,0,0,.053.15c.021.044.031.074-.031.055a.437.437,0,0,1-.2-.163c-.08-.108-.153-.045-.105.114a1.887,1.887,0,0,0,.605.611m.681,1.566c-.106-.074-.182-.151-.218-.176s-.029-.008-.03.012a.556.556,0,0,0,.04.221c.021.049-.014.06-.074.02a2.572,2.572,0,0,1-.424-.4c-.017-.019-.042-.016-.042,0a.913.913,0,0,0,.025.189c.01.036,0,.051-.038.023a1.4,1.4,0,0,1-.264-.321c-.039-.067-.111-.119-.116.007-.013.306.474.744.611.853.187-.138.371-.291.529-.431m.29-.563c.026-.033.027-.049-.009-.039a.288.288,0,0,1-.1.01c-.034-.005-.053-.013,0-.05l.011-.009a.491.491,0,0,1-.2,0c-.03-.007-.046.007-.021.039a1.874,1.874,0,0,0,.183.184,1.117,1.117,0,0,0,.136-.136m.09.166a.435.435,0,0,1-.146.042l.083.067.086-.079c.032-.029.028-.059-.023-.031m.545-1.258c-.006-.147-.09-.086-.135-.009a1.572,1.572,0,0,1-.306.371c-.041.032-.054.016-.043-.026a1,1,0,0,0,.029-.218c0-.024-.028-.027-.048-.006a2.966,2.966,0,0,1-.491.464c-.069.046-.11.034-.086-.022a.657.657,0,0,0,.047-.256c0-.024.009-.045-.035-.014-.022.016-.065.054-.116.1.031.026.022.054-.039.039l-.007,0a1.449,1.449,0,0,1-.119.086,1.236,1.236,0,0,0,.691.441c.2-.173.674-.626.66-.947M9.46,14.5a.755.755,0,0,0-.054-.135c-.05-.074-.164.141-.279.321a.175.175,0,0,0,.026.062c.033.04.062.053.092.041a.745.745,0,0,0,.148-.148.346.346,0,0,0,.067-.14m2.592-2.471c.017.008.04.015.058.023a.236.236,0,0,0,.005-.032c0-.028-.019-.021-.042,0l-.021.013m-.647,1.4a1.236,1.236,0,0,0,.691-.441,1.449,1.449,0,0,1-.119-.086l-.007,0c-.062.014-.071-.013-.039-.039-.051-.044-.093-.082-.116-.1-.044-.031-.034-.01-.035.014a.657.657,0,0,0,.047.256c.025.057-.016.069-.086.022a2.933,2.933,0,0,1-.491-.464c-.02-.021-.049-.018-.049.006a1.042,1.042,0,0,0,.029.218c.012.042,0,.059-.043.026a1.587,1.587,0,0,1-.306-.371c-.045-.078-.129-.138-.135.009-.014.322.456.774.66.947m.031.353a.439.439,0,0,1-.146-.042c-.051-.029-.055,0-.023.031l.086.079.083-.067m.263-.256c.025-.032.009-.046-.021-.039a.494.494,0,0,1-.2,0l.011.009c.052.037.033.045,0,.05a.288.288,0,0,1-.1-.01c-.036-.01-.035.007-.009.039a1.117,1.117,0,0,0,.136.136,1.874,1.874,0,0,0,.182-.184m1.112.19c-.005-.127-.077-.074-.116-.007a1.38,1.38,0,0,1-.264.321c-.036.028-.047.013-.037-.023a.913.913,0,0,0,.025-.189c0-.02-.025-.023-.042,0a2.547,2.547,0,0,1-.424.4c-.06.04-.095.029-.074-.02a.556.556,0,0,0,.04-.221c0-.02.007-.039-.03-.012s-.111.1-.217.176c.159.14.342.293.529.431.137-.109.624-.547.611-.853m.041-1.869a.436.436,0,0,1-.2.163c-.063.019-.053-.011-.032-.055a.692.692,0,0,0,.053-.15c.01-.047-.019-.049-.062-.013a3.959,3.959,0,0,1-.359.314c.044.015.079.034.13.047s.036.029,0,.045a.557.557,0,0,1-.318.018c-.035-.007-.054.008-.024.045a2.519,2.519,0,0,0,.319.311,1.884,1.884,0,0,0,.6-.611c.048-.159-.025-.222-.105-.114m2.017,3.616a.662.662,0,0,0-.047-.116c-.043-.064-.142.121-.24.277a.15.15,0,0,0,.021.054c.029.034.054.046.08.034a.624.624,0,0,0,.128-.128.3.3,0,0,0,.058-.121" transform="translate(0)" fill="#0d7775"/>
    </g>
  </g>
</svg>
