<svg xmlns="http://www.w3.org/2000/svg" width="598.912" height="57.28" viewBox="0 0 598.912 57.28">
  <path id="movie_heading_pc" d="M44.992-36.032A56.659,56.659,0,0,1,36.544-21.5,86.513,86.513,0,0,0,21.952-28.1a81.3,81.3,0,0,0,6.528-7.68,4.651,4.651,0,0,0,2.368,1.152,14.916,14.916,0,0,0,3.584-.832,77.011,77.011,0,0,1,9.856-1.6C44.992-37.12,45.312-36.864,44.992-36.032Zm-14.464-2.56c.64-.96,1.216-1.856,1.792-2.816.96-1.6,1.856-2.112,1.856-3.328,0-1.28-3.648-3.392-6.72-3.84a13.9,13.9,0,0,0-3.968-.064l-.32,1.088c2.176,1.024,3.84,2.112,3.84,3.264,0,3.84-10.624,18.5-20.48,25.984l.96,1.28A57.184,57.184,0,0,0,20.672-26.88,54.2,54.2,0,0,1,33.92-18.3,87.581,87.581,0,0,1,6.976,3.136L7.808,4.48A76.318,76.318,0,0,0,37.184-15.04c4.48,4.992,5.5,7.616,7.616,7.552A2.5,2.5,0,0,0,47.36-10.3c-.128-2.688-3.136-5.76-6.848-8.512a100.177,100.177,0,0,0,9.6-14.528c.832-1.536,3.136-2.112,3.136-3.456,0-1.92-4.544-4.992-6.144-4.992-1.216,0-1.792,1.28-3.52,1.664a96.206,96.206,0,0,1-12.8,1.536ZM47.04-47.936a33.579,33.579,0,0,1,5.7,5.824c1.28,1.536,2.048,2.752,3.008,2.752a1.7,1.7,0,0,0,1.728-1.792c-.064-1.344-.7-2.432-2.24-3.84a21.946,21.946,0,0,0-7.488-3.9Zm5.5-3.9a33.862,33.862,0,0,1,5.824,5.248c1.408,1.536,2.048,2.88,3.2,2.88a1.591,1.591,0,0,0,1.6-1.856c0-1.408-.768-2.624-2.432-3.9A23.212,23.212,0,0,0,53.312-52.8ZM94.4-48.256c2.56,1.216,3.776,2.24,3.776,3.264,0,.64-.512,1.792-1.664,3.456C91.9-34.88,80.192-22.656,64.768-13.952L65.6-12.48a90.571,90.571,0,0,0,24.512-15.1,5.126,5.126,0,0,1,.7,2.816A159.889,159.889,0,0,1,90.24-7.3c-.256,2.048-.768,3.392-.768,4.608,0,2.432,1.216,5.5,3.648,5.5,1.664,0,2.432-1.024,2.432-3.52,0-3.648-.384-13.248,0-22.4.064-1.664.576-2.624.576-3.52,0-1.024-1.472-2.176-3.328-3.392,4.032-3.9,7.232-7.3,9.536-9.792,1.792-1.92,3.008-1.856,3.008-3.264,0-1.856-3.136-4.864-5.888-5.76a12.683,12.683,0,0,0-4.608-.576Zm57.792,30.208a85.122,85.122,0,0,0,13.12-10.5c1.408-1.344,3.584-1.728,3.584-3.136,0-1.792-4.8-5.632-6.912-5.632-1.024,0-1.664,1.216-3.584,1.792-3.584,1.024-11.264,3.136-16.7,4.672.256-3.84.512-7.168.768-8.9.32-2.112,1.6-2.88,1.6-4.48s-4.288-4.16-6.976-4.16A16,16,0,0,0,131.9-47.3l.064,1.152c3.136.576,5.056,1.024,5.184,2.624.192,2.5.064,8.832-.064,14.016-4.48,1.344-12.672,3.776-14.976,3.776-1.728,0-2.88-1.344-4.16-3.136l-.96.32a7.931,7.931,0,0,0,.384,3.776c.9,1.92,4.608,4.8,6.272,4.8,1.92,0,2.24-1.024,4.672-2.176,2.368-1.024,5.824-2.3,8.7-3.328-.064,4.288-.256,10.368-.128,14.592.064,8.7,3.968,9.472,14.464,9.472a75.433,75.433,0,0,0,12.992-1.216c1.728-.32,3.008-.96,3.008-2.368,0-1.92-2.88-2.752-4.928-2.752-1.28,0-4.608,1.536-13.248,1.536-7.232,0-8-.512-8.128-5.888,0-3.776.128-9.536.448-14.912,5.632-1.92,14.848-5.056,18.3-5.568.9-.128,1.216.32.768,1.088a64.707,64.707,0,0,1-9.408,12.416Zm51.712-24c3.2.448,4.928,1.152,4.992,2.816.384,6.144,0,23.1-.256,26.624-.192,2.56-.96,3.008-.96,4.288,0,1.408,2.944,4.992,4.608,4.992,1.408,0,2.368-1.92,3.84-2.816,8.512-5.12,17.728-12.736,23.232-20.928L238.08-28.1c-6.336,6.528-15.168,13.12-23.808,16.768-.7.32-1.152.064-1.152-.768,0-4.8.512-21.056.832-24.256.256-2.048,1.6-2.176,1.6-3.648,0-1.728-4.416-4.288-7.3-4.288a10.818,10.818,0,0,0-4.416.96ZM195.648-31.68c0,8.192-6.4,21.632-16.448,29.824L180.224-.64c12.16-7.168,18.368-17.664,20.544-27.776.32-1.6,1.536-2.24,1.536-3.648,0-2.112-4.864-4.8-7.3-4.928a12.8,12.8,0,0,0-4.1.64v1.28C192.64-34.56,195.648-33.664,195.648-31.68Zm78.08-4.544A30.094,30.094,0,0,1,271.3-25.856c-2.5,5.568-8.32,15.3-12.352,15.3-2.624,0-5.248-4.672-5.248-10.5a20.462,20.462,0,0,1,6.336-14.464,24.045,24.045,0,0,1,11.84-6.464A10.456,10.456,0,0,1,273.728-36.224ZM272.768.512C293.824-.7,301.056-11.456,301.056-22.464c0-13.312-10.24-22.4-23.872-22.4a27.9,27.9,0,0,0-18.88,6.848c-5.76,4.992-8.832,11.968-8.832,18.24,0,8.064,4.544,15.168,9.088,15.168,6.912,0,14.272-12.224,16.96-20.032a32.355,32.355,0,0,0,2.048-10.624c0-2.624-1.536-5.12-3.2-7.168.832-.064,1.6-.128,2.368-.128,10.56,0,18.752,7.36,18.752,18.816,0,11.52-7.168,19.776-22.976,22.848Zm74.624-18.56a85.122,85.122,0,0,0,13.12-10.5c1.408-1.344,3.584-1.728,3.584-3.136,0-1.792-4.8-5.632-6.912-5.632-1.024,0-1.664,1.216-3.584,1.792-3.584,1.024-11.264,3.136-16.7,4.672.256-3.84.512-7.168.768-8.9.32-2.112,1.6-2.88,1.6-4.48s-4.288-4.16-6.976-4.16A16,16,0,0,0,327.1-47.3l.064,1.152c3.136.576,5.056,1.024,5.184,2.624.192,2.5.064,8.832-.064,14.016-4.48,1.344-12.672,3.776-14.976,3.776-1.728,0-2.88-1.344-4.16-3.136l-.96.32a7.931,7.931,0,0,0,.384,3.776c.9,1.92,4.608,4.8,6.272,4.8,1.92,0,2.24-1.024,4.672-2.176,2.368-1.024,5.824-2.3,8.7-3.328-.064,4.288-.256,10.368-.128,14.592.064,8.7,3.968,9.472,14.464,9.472a75.433,75.433,0,0,0,12.992-1.216c1.728-.32,3.008-.96,3.008-2.368,0-1.92-2.88-2.752-4.928-2.752-1.28,0-4.608,1.536-13.248,1.536-7.232,0-8-.512-8.128-5.888,0-3.776.128-9.536.448-14.912,5.632-1.92,14.848-5.056,18.3-5.568.9-.128,1.216.32.768,1.088a64.707,64.707,0,0,1-9.408,12.416Zm51.712-24c3.2.448,4.928,1.152,4.992,2.816.384,6.144,0,23.1-.256,26.624-.192,2.56-.96,3.008-.96,4.288,0,1.408,2.944,4.992,4.608,4.992,1.408,0,2.368-1.92,3.84-2.816,8.512-5.12,17.728-12.736,23.232-20.928L433.28-28.1c-6.336,6.528-15.168,13.12-23.808,16.768-.7.32-1.152.064-1.152-.768,0-4.8.512-21.056.832-24.256.256-2.048,1.6-2.176,1.6-3.648,0-1.728-4.416-4.288-7.3-4.288a10.818,10.818,0,0,0-4.416.96ZM390.848-31.68c0,8.192-6.4,21.632-16.448,29.824L375.424-.64c12.16-7.168,18.368-17.664,20.544-27.776.32-1.6,1.536-2.24,1.536-3.648,0-2.112-4.864-4.8-7.3-4.928a12.8,12.8,0,0,0-4.1.64v1.28C387.84-34.56,390.848-33.664,390.848-31.68Zm63.3,19.968c-.192-6.336-.64-17.984-.832-22.336a6.613,6.613,0,0,0,2.688.9c1.216,0,3.136-.64,5.184-.9,3.52-.384,13.248-1.152,17.088-1.152.64,0,.832.256.832.768,0,3.392-1.408,13.888-2.624,21.184C470.4-12.992,460.672-12.224,454.144-11.712ZM443.712-39.168c2.048,1.792,3.072,3.136,3.648,5.44.96,3.968,1.792,13.888,1.792,18.368.064,2.624-.192,6.08-.192,7.488,0,2.752,1.536,4.8,3.072,4.8,1.664,0,2.24-1.088,2.24-2.752V-8c7.424-.512,15.744-.96,20.736-.96,3.136,0,6.464.448,8.128.448a1.957,1.957,0,0,0,2.176-2.176c0-1.408-1.792-2.432-4.032-2.624,1.344-6.592,2.688-14.336,3.328-17.408.448-1.856,2.56-2.432,2.56-3.968,0-1.92-5.056-5.952-6.848-5.952-1.408,0-1.792,1.6-4.16,1.856-2.56.384-16.96,1.664-23.36,2.048-.064-.064-.128-.192-.256-.256-2.5-2.176-4.992-2.752-8.064-3.2Zm56.512,11.776a10.438,10.438,0,0,0,.512,3.968c.96,2.432,4.224,5.888,6.208,5.888,2.048,0,2.816-1.088,6.784-1.536,4.8-.576,21.76-1.536,25.984-1.536,4.1,0,6.336.128,8.64.128s3.264-.768,3.264-2.048c0-2.048-3.008-3.392-5.888-3.392-1.6,0-3.712.384-8,.7-3.2.256-24.768,1.664-30.784,1.664-2.88,0-3.968-1.92-5.44-4.224Zm62.656-15.36a13.021,13.021,0,0,0,.768,4.16c.768,1.792,3.456,4.864,5.568,4.864,1.664,0,2.048-1.28,4.1-1.856,3.392-.96,12.1-3.136,16.064-3.712.7-.128,1.088.064.768.96-5.76,12.928-21.056,28.352-36.1,36.16l.9,1.472c13.184-4.8,22.464-12.928,28.416-19.136,5.824,3.584,9.408,7.616,13.312,12.416,3.008,3.712,4.16,5.7,6.144,5.7a2.636,2.636,0,0,0,2.624-2.816c0-5.888-10.112-12.672-20.544-16.9a107.608,107.608,0,0,0,10.368-14.208c.832-1.216,3.072-1.856,3.072-3.264,0-1.664-4.672-5.44-6.784-5.44-1.088,0-1.92,1.408-3.328,1.792-3.392.832-15.616,3.072-19.392,3.072-2.176,0-3.52-2.176-4.672-3.776Z" transform="translate(-6.528 52.8)" fill="#fff"/>
</svg>
